<svg width="42" height="42" viewBox="0 0 42 42" fill="none" xmlns="http://www.w3.org/2000/svg">
<path d="M11 11H12.74C13.82 11 14.67 11.93 14.58 13L13.75 22.96C13.61 24.59 14.9 25.99 16.54 25.99H27.19C28.63 25.99 29.89 24.81 30 23.38L30.54 15.88C30.66 14.22 29.4 12.87 27.73 12.87H14.82" stroke="#202020" stroke-width="1.5" stroke-miterlimit="10" stroke-linecap="round" stroke-linejoin="round"/>
<path d="M25.25 31C25.9404 31 26.5 30.4404 26.5 29.75C26.5 29.0596 25.9404 28.5 25.25 28.5C24.5596 28.5 24 29.0596 24 29.75C24 30.4404 24.5596 31 25.25 31Z" stroke="#202020" stroke-width="1.5" stroke-miterlimit="10" stroke-linecap="round" stroke-linejoin="round"/>
<path d="M17.25 31C17.9404 31 18.5 30.4404 18.5 29.75C18.5 29.0596 17.9404 28.5 17.25 28.5C16.5596 28.5 16 29.0596 16 29.75C16 30.4404 16.5596 31 17.25 31Z" stroke="#202020" stroke-width="1.5" stroke-miterlimit="10" stroke-linecap="round" stroke-linejoin="round"/>
<path d="M18 17H30" stroke="#202020" stroke-width="1.5" stroke-miterlimit="10" stroke-linecap="round" stroke-linejoin="round"/>
</svg>
