<svg width="25" height="24" viewBox="0 0 25 24" fill="black" xmlns="http://www.w3.org/2000/svg">
<path fill-rule="evenodd" clip-rule="evenodd" d="M21.2038 13.7573C20.7942 13.7573 20.4607 13.4243 20.4607 13.0143C20.4607 12.6047 20.7941 12.2719 21.2038 12.2719C21.6131 12.2719 21.9463 12.6047 21.9463 13.0143C21.9463 13.4242 21.6131 13.7573 21.2038 13.7573ZM17.5644 16.8246C17.5644 19.6166 15.2923 21.8882 12.5002 21.8882C9.7076 21.8882 7.43605 19.6167 7.43605 16.8246C7.43605 14.0322 9.7076 11.7604 12.5002 11.7604C15.2923 11.7604 17.5644 14.0323 17.5644 16.8246ZM12.5002 2.29901C13.4939 3.67729 13.4936 5.79337 12.5002 7.17169C11.5065 5.79293 11.5062 3.67777 12.5002 2.29901ZM3.79669 13.7573C3.38706 13.7573 3.05394 13.4243 3.05394 13.0143C3.05394 12.6047 3.38701 12.2719 3.79669 12.2719C4.20632 12.2719 4.53968 12.6047 4.53968 13.0143C4.53968 13.4242 4.20632 13.7573 3.79669 13.7573ZM9.58553 9.09922C10.3672 9.55882 11.251 9.76652 12.0637 9.69049C11.3781 8.13653 9.5539 7.06364 7.86272 7.22247C8.19138 7.9693 8.80328 8.63991 9.58553 9.09922ZM14.6596 7.81373C13.8776 8.27305 13.2658 8.94361 12.9365 9.69049C14.6272 9.8486 16.4537 8.77681 17.1378 7.22247C16.3253 7.1462 15.4416 7.35418 14.6596 7.81373ZM21.2038 11.6339C20.9363 11.6339 20.6868 11.7102 20.4751 11.8422C19.5183 11.1447 18.2754 10.7628 16.9446 10.7628C15.962 10.7628 15.0133 10.9754 14.1904 11.3782C13.753 11.2421 13.2937 11.1578 12.8191 11.1315V10.3188C14.9538 10.553 17.246 9.09692 17.8791 7.06085C17.9347 6.8821 17.8241 6.69226 17.6396 6.65396C16.5783 6.43143 15.3743 6.65396 14.3361 7.26361C13.7289 7.62058 13.2101 8.09223 12.8191 8.62945V7.7978C13.4971 7.00076 13.8836 5.89306 13.8836 4.73521C13.8836 3.53151 13.4655 2.38076 12.7362 1.5782C12.6092 1.43842 12.3907 1.43881 12.264 1.5782C11.5347 2.38076 11.1165 3.53151 11.1165 4.73521C11.1165 5.89306 11.5031 7.00076 12.1811 7.7978V8.62945C11.7904 8.09223 11.2716 7.62053 10.6641 7.26361C9.62585 6.65396 8.42187 6.43143 7.36059 6.65396C7.1768 6.69217 7.06529 6.88143 7.12136 7.06085C7.76038 9.10618 10.0477 10.5486 12.1811 10.3196V11.1315C11.7065 11.1578 11.2472 11.2421 10.8101 11.3782C9.98691 10.9754 9.0381 10.7628 8.05558 10.7628C6.72483 10.7628 5.48221 11.1447 4.52518 11.8422C3.6141 11.2745 2.41602 11.9287 2.41602 13.0143C2.41602 13.776 3.03531 14.3953 3.79669 14.3953C4.87467 14.3953 5.52944 13.213 4.97979 12.3037C6.35994 11.3492 8.3419 11.1491 9.9669 11.7168C8.09072 12.6516 6.79813 14.5898 6.79813 16.8246C6.79813 19.9687 9.3559 22.5265 12.5002 22.5265C15.6443 22.5265 18.2023 19.9687 18.2023 16.8246C18.2023 14.5898 16.9098 12.6516 15.033 11.7168C16.6584 11.1493 18.6399 11.349 20.0204 12.3037C19.4716 13.2115 20.1247 14.3953 21.2038 14.3953C21.9649 14.3953 22.5842 13.7761 22.5842 13.0143C22.5842 12.2529 21.9649 11.6339 21.2038 11.6339ZM13.2224 14.1052C13.2224 14.0907 13.2092 14.0773 13.1941 14.0773H11.8061C11.7912 14.0773 11.7781 14.0907 11.7781 14.1052V15.7831C11.7781 15.9592 11.6351 16.1022 11.459 16.1022H9.78114C9.7663 16.1022 9.75315 16.1156 9.75315 16.1302V17.5188C9.75315 17.5334 9.76635 17.5468 9.78114 17.5468H11.459C11.6351 17.5468 11.7781 17.6897 11.7781 17.8659V19.5437C11.7781 19.5583 11.7912 19.5717 11.8061 19.5717H13.1941C13.2092 19.5717 13.2224 19.5583 13.2224 19.5437V17.8659C13.2224 17.6897 13.3653 17.5468 13.5412 17.5468H15.2191C15.2341 17.5468 15.2473 17.5334 15.2473 17.5188V16.1302C15.2473 16.1156 15.2341 16.1022 15.2191 16.1022H13.5412C13.3653 16.1022 13.2224 15.9592 13.2224 15.7831V14.1052ZM11.1402 14.1052V15.464H9.78118C9.41379 15.464 9.11528 15.7631 9.11528 16.1302V17.5188C9.11528 17.8857 9.41379 18.1847 9.78118 18.1847H11.1402V19.5437C11.1402 19.9108 11.4387 20.2096 11.8061 20.2096H13.1941C13.5618 20.2096 13.8603 19.9108 13.8603 19.5437V18.1847H15.2191C15.5867 18.1847 15.8852 17.8856 15.8852 17.5188V16.1302C15.8852 15.7631 15.5867 15.464 15.2191 15.464H13.8603V14.1052C13.8603 13.7381 13.5618 13.4393 13.1941 13.4393H11.8061C11.4387 13.4393 11.1402 13.7381 11.1402 14.1052Z" fill="black"/>
</svg>
