<svg width="157" height="40" viewBox="0 0 157 40" fill="none" xmlns="http://www.w3.org/2000/svg">
<path d="M0 4C0 1.79086 1.79086 0 4 0H153C155.209 0 157 1.79086 157 4V36C157 38.2091 155.209 40 153 40H4C1.79086 40 0 38.2091 0 36V4Z" fill="white"/>
<path d="M28.1371 11.434L36.8771 20.005L28.2021 28.655C28.0602 28.4702 27.95 28.263 27.8761 28.042C27.8379 27.7918 27.8379 27.5372 27.8761 27.287V12.567C27.8501 12.172 27.9411 11.777 28.1361 11.434M37.7901 20.93L40.6291 23.718L38.5711 24.864L32.2921 28.354C31.7721 28.641 31.2501 28.915 30.7421 29.228C30.5247 29.3633 30.281 29.4507 30.0271 29.4844C29.7733 29.518 29.5152 29.4971 29.2701 29.423L37.7901 20.93ZM45.1501 20.005C45.1574 20.3547 45.069 20.6997 44.8945 21.0028C44.7201 21.306 44.4661 21.5557 44.1601 21.725L41.8141 23.027L38.7271 20.005L41.8271 16.931C42.6221 17.374 43.4041 17.817 44.1851 18.234C44.4966 18.4081 44.7524 18.6668 44.923 18.9802C45.0936 19.2936 45.173 19.6489 45.1501 20.005Z" fill="#202020"/>
<path d="M37.7891 19.093L40.6421 16.267C40.1471 15.98 39.6521 15.693 39.1441 15.42L31.3281 11.095C30.9251 10.842 30.4861 10.648 30.0261 10.522C29.7331 10.476 29.4331 10.503 29.1531 10.6L37.7891 19.093Z" fill="#202020"/>
<path d="M62.4765 15.665C61.9338 15.665 61.4388 15.5697 60.9915 15.379C60.5442 15.1883 60.1592 14.9152 59.8365 14.5595C59.5138 14.2002 59.2645 13.7675 59.0885 13.2615C58.9162 12.7518 58.83 12.178 58.83 11.54C58.83 10.6967 58.9803 9.967 59.281 9.351C59.5817 8.735 60.0052 8.26017 60.5515 7.9265C61.0978 7.58917 61.7395 7.4205 62.4765 7.4205C63.3638 7.4205 64.0788 7.62767 64.6215 8.042C65.1642 8.45267 65.5382 9.0155 65.7435 9.7305L64.7535 9.934C64.5885 9.45367 64.3172 9.0705 63.9395 8.7845C63.5618 8.4985 63.0907 8.3555 62.526 8.3555C61.9357 8.35183 61.4443 8.48383 61.052 8.7515C60.6633 9.0155 60.37 9.38767 60.172 9.868C59.974 10.3483 59.8732 10.9057 59.8695 11.54C59.8658 12.1707 59.963 12.7243 60.161 13.201C60.359 13.6777 60.6542 14.0517 61.0465 14.323C61.4425 14.5907 61.9357 14.7263 62.526 14.73C63.0357 14.7337 63.4647 14.6365 63.813 14.4385C64.1613 14.2405 64.4308 13.9545 64.6215 13.5805C64.8122 13.2065 64.9277 12.7573 64.968 12.233H63.285V11.4245H66.002C66.013 11.4978 66.0185 11.5858 66.0185 11.6885C66.0222 11.7875 66.024 11.8553 66.024 11.892C66.024 12.6143 65.8883 13.2615 65.617 13.8335C65.3493 14.4018 64.9515 14.8492 64.4235 15.1755C63.8992 15.5018 63.2502 15.665 62.4765 15.665ZM69.6965 15.665C69.1135 15.665 68.6039 15.5367 68.1675 15.28C67.7349 15.0197 67.3975 14.6585 67.1555 14.1965C66.9135 13.7308 66.7925 13.1882 66.7925 12.5685C66.7925 11.9195 66.9117 11.3585 67.15 10.8855C67.3884 10.4088 67.7202 10.0422 68.1455 9.7855C68.5745 9.52517 69.0769 9.395 69.6525 9.395C70.2502 9.395 70.758 9.5325 71.176 9.8075C71.5977 10.0825 71.913 10.4748 72.122 10.9845C72.3347 11.4942 72.4264 12.101 72.397 12.805H71.407V12.453C71.396 11.7233 71.2475 11.1788 70.9615 10.8195C70.6755 10.4565 70.2502 10.275 69.6855 10.275C69.0805 10.275 68.6204 10.4693 68.305 10.858C67.9897 11.2467 67.832 11.804 67.832 12.53C67.832 13.2303 67.9897 13.773 68.305 14.158C68.6204 14.543 69.0695 14.7355 69.6525 14.7355C70.0449 14.7355 70.3859 14.6457 70.6755 14.466C70.9652 14.2863 71.1925 14.0278 71.3575 13.6905L72.298 14.015C72.067 14.5393 71.7187 14.9463 71.253 15.236C70.791 15.522 70.2722 15.665 69.6965 15.665ZM67.502 12.805V12.0185H71.891V12.805H67.502ZM76.9381 15.5C76.5861 15.5697 76.2377 15.5972 75.8931 15.5825C75.5521 15.5715 75.2477 15.5037 74.9801 15.379C74.7124 15.2507 74.5089 15.0527 74.3696 14.785C74.2522 14.5503 74.1881 14.3138 74.1771 14.0755C74.1697 13.8335 74.1661 13.5603 74.1661 13.256V7.91H75.1451V13.212C75.1451 13.454 75.1469 13.6612 75.1506 13.8335C75.1579 14.0058 75.1964 14.1543 75.2661 14.279C75.3981 14.5137 75.6071 14.6512 75.8931 14.6915C76.1827 14.7318 76.5311 14.7208 76.9381 14.6585V15.5ZM72.9616 10.3685V9.56H76.9381V10.3685H72.9616ZM80.4562 15.5V7.58H81.4352V15.5H80.4562ZM86.4019 15.5C86.0499 15.5697 85.7016 15.5972 85.3569 15.5825C85.0159 15.5715 84.7116 15.5037 84.4439 15.379C84.1763 15.2507 83.9728 15.0527 83.8334 14.785C83.7161 14.5503 83.6519 14.3138 83.6409 14.0755C83.6336 13.8335 83.6299 13.5603 83.6299 13.256V7.91H84.6089V13.212C84.6089 13.454 84.6108 13.6612 84.6144 13.8335C84.6218 14.0058 84.6603 14.1543 84.7299 14.279C84.8619 14.5137 85.0709 14.6512 85.3569 14.6915C85.6466 14.7318 85.9949 14.7208 86.4019 14.6585V15.5ZM82.4254 10.3685V9.56H86.4019V10.3685H82.4254ZM93.066 15.665C92.2777 15.665 91.6085 15.4908 91.0585 15.1425C90.5085 14.7942 90.0887 14.3102 89.799 13.6905C89.513 13.0708 89.37 12.354 89.37 11.54C89.37 10.726 89.513 10.0092 89.799 9.3895C90.0887 8.76983 90.5085 8.28583 91.0585 7.9375C91.6085 7.58917 92.2777 7.415 93.066 7.415C93.858 7.415 94.529 7.58917 95.079 7.9375C95.629 8.28583 96.047 8.76983 96.333 9.3895C96.619 10.0092 96.762 10.726 96.762 11.54C96.762 12.354 96.619 13.0708 96.333 13.6905C96.047 14.3102 95.629 14.7942 95.079 15.1425C94.529 15.4908 93.858 15.665 93.066 15.665ZM93.066 14.73C93.6564 14.7337 94.1477 14.6017 94.54 14.334C94.936 14.0627 95.2312 13.6868 95.4255 13.2065C95.6235 12.7262 95.7225 12.1707 95.7225 11.54C95.7225 10.9057 95.6235 10.3502 95.4255 9.8735C95.2312 9.39683 94.936 9.02467 94.54 8.757C94.1477 8.48933 93.6564 8.35367 93.066 8.35C92.4757 8.34633 91.9844 8.47833 91.592 8.746C91.2034 9.01367 90.91 9.38767 90.712 9.868C90.514 10.3483 90.4132 10.9057 90.4095 11.54C90.4059 12.1707 90.503 12.7243 90.701 13.201C90.899 13.6777 91.1942 14.0517 91.5865 14.323C91.9825 14.5907 92.4757 14.7263 93.066 14.73ZM102.096 15.5V12.5245C102.096 12.2422 102.071 11.9708 102.019 11.7105C101.972 11.4502 101.885 11.2173 101.761 11.012C101.64 10.803 101.475 10.638 101.266 10.517C101.06 10.396 100.8 10.3355 100.485 10.3355C100.239 10.3355 100.015 10.3777 99.8137 10.462C99.6157 10.5427 99.4452 10.6673 99.3022 10.836C99.1592 11.0047 99.0473 11.2173 98.9667 11.474C98.8897 11.727 98.8512 12.0258 98.8512 12.3705L98.2077 12.1725C98.2077 11.5968 98.3103 11.1037 98.5157 10.693C98.7247 10.2787 99.0162 9.9615 99.3902 9.7415C99.7678 9.51783 100.212 9.406 100.721 9.406C101.106 9.406 101.434 9.4665 101.706 9.5875C101.977 9.7085 102.203 9.86983 102.382 10.0715C102.562 10.2695 102.703 10.4932 102.806 10.7425C102.908 10.9882 102.98 11.2393 103.02 11.496C103.064 11.749 103.086 11.9892 103.086 12.2165V15.5H102.096ZM97.8612 15.5V9.56H98.7412V11.1495H98.8512V15.5H97.8612Z" fill="#202020"/>
<path d="M62.537 33.665C62.0237 33.665 61.5415 33.5752 61.0905 33.3955C60.6432 33.2122 60.249 32.9445 59.908 32.5925C59.5707 32.2405 59.3067 31.8097 59.116 31.3C58.9253 30.7867 58.83 30.2 58.83 29.54C58.83 28.6747 58.9913 27.9358 59.314 27.3235C59.6367 26.7075 60.0785 26.2363 60.6395 25.91C61.2005 25.58 61.833 25.415 62.537 25.415C63.5123 25.415 64.2842 25.6423 64.8525 26.097C65.4245 26.548 65.8113 27.1823 66.013 28L64.66 28.2145C64.5097 27.7452 64.264 27.3712 63.923 27.0925C63.582 26.8102 63.1475 26.669 62.6195 26.669C62.0878 26.6617 61.646 26.7772 61.294 27.0155C60.942 27.2538 60.6762 27.5893 60.4965 28.022C60.3205 28.4547 60.2325 28.9607 60.2325 29.54C60.2325 30.1193 60.3205 30.6235 60.4965 31.0525C60.6725 31.4778 60.9365 31.8097 61.2885 32.048C61.6442 32.2863 62.0878 32.4092 62.6195 32.4165C63.0192 32.4202 63.3693 32.3487 63.67 32.202C63.9707 32.0517 64.2163 31.8262 64.407 31.5255C64.5977 31.2212 64.726 30.8417 64.792 30.387H63.395V29.3475H66.2C66.2073 29.4062 66.2128 29.4923 66.2165 29.606C66.2202 29.7197 66.222 29.7875 66.222 29.8095C66.222 30.5575 66.0735 31.223 65.7765 31.806C65.4832 32.3853 65.0615 32.84 64.5115 33.17C63.9615 33.5 63.3033 33.665 62.537 33.665ZM69.9501 33.665C69.3561 33.665 68.8373 33.5312 68.3936 33.2635C67.95 32.9958 67.6053 32.6273 67.3596 32.158C67.1176 31.685 66.9966 31.1423 66.9966 30.53C66.9966 29.9067 67.1213 29.3603 67.3706 28.891C67.62 28.4217 67.9665 28.055 68.4101 27.791C68.8538 27.527 69.3671 27.395 69.9501 27.395C70.5478 27.395 71.0685 27.5288 71.5121 27.7965C71.9558 28.0642 72.3005 28.4345 72.5461 28.9075C72.7918 29.3768 72.9146 29.9177 72.9146 30.53C72.9146 31.146 72.79 31.6905 72.5406 32.1635C72.295 32.6328 71.9503 33.0013 71.5066 33.269C71.063 33.533 70.5441 33.665 69.9501 33.665ZM69.9501 32.422C70.4781 32.422 70.8705 32.246 71.1271 31.894C71.3838 31.542 71.5121 31.0873 71.5121 30.53C71.5121 29.9543 71.382 29.496 71.1216 29.155C70.8613 28.8103 70.4708 28.638 69.9501 28.638C69.5945 28.638 69.3011 28.7187 69.0701 28.88C68.8428 29.0377 68.6741 29.2595 68.5641 29.5455C68.4541 29.8278 68.3991 30.156 68.3991 30.53C68.3991 31.1057 68.5293 31.5658 68.7896 31.9105C69.0536 32.2515 69.4405 32.422 69.9501 32.422ZM76.7499 33.665C76.1559 33.665 75.6371 33.5312 75.1934 33.2635C74.7498 32.9958 74.4051 32.6273 74.1594 32.158C73.9174 31.685 73.7964 31.1423 73.7964 30.53C73.7964 29.9067 73.9211 29.3603 74.1704 28.891C74.4198 28.4217 74.7663 28.055 75.2099 27.791C75.6536 27.527 76.1669 27.395 76.7499 27.395C77.3476 27.395 77.8683 27.5288 78.3119 27.7965C78.7556 28.0642 79.1003 28.4345 79.3459 28.9075C79.5916 29.3768 79.7144 29.9177 79.7144 30.53C79.7144 31.146 79.5898 31.6905 79.3404 32.1635C79.0948 32.6328 78.7501 33.0013 78.3064 33.269C77.8628 33.533 77.3439 33.665 76.7499 33.665ZM76.7499 32.422C77.2779 32.422 77.6703 32.246 77.9269 31.894C78.1836 31.542 78.3119 31.0873 78.3119 30.53C78.3119 29.9543 78.1818 29.496 77.9214 29.155C77.6611 28.8103 77.2706 28.638 76.7499 28.638C76.3943 28.638 76.1009 28.7187 75.8699 28.88C75.6426 29.0377 75.4739 29.2595 75.3639 29.5455C75.2539 29.8278 75.1989 30.156 75.1989 30.53C75.1989 31.1057 75.3291 31.5658 75.5894 31.9105C75.8534 32.2515 76.2403 32.422 76.7499 32.422ZM83.4233 36.305C83.0933 36.305 82.7761 36.2537 82.4718 36.151C82.1711 36.0483 81.8998 35.8998 81.6578 35.7055C81.4158 35.5148 81.2178 35.2838 81.0638 35.0125L82.2848 34.4075C82.3984 34.6238 82.5579 34.7833 82.7633 34.886C82.9723 34.9923 83.1941 35.0455 83.4288 35.0455C83.7038 35.0455 83.9494 34.996 84.1658 34.897C84.3821 34.8017 84.5489 34.6587 84.6663 34.468C84.7873 34.281 84.8441 34.0463 84.8368 33.764V32.0755H85.0018V27.56H86.1623V33.786C86.1623 33.9363 86.1549 34.0793 86.1403 34.215C86.1293 34.3543 86.1091 34.49 86.0798 34.622C85.9918 35.007 85.8231 35.3223 85.5738 35.568C85.3244 35.8173 85.0146 36.0025 84.6443 36.1235C84.2776 36.2445 83.8706 36.305 83.4233 36.305ZM83.3078 33.665C82.7614 33.665 82.2848 33.5275 81.8778 33.2525C81.4708 32.9775 81.1554 32.6035 80.9318 32.1305C80.7081 31.6575 80.5963 31.124 80.5963 30.53C80.5963 29.9287 80.7081 29.3933 80.9318 28.924C81.1591 28.451 81.4799 28.0788 81.8943 27.8075C82.3086 27.5325 82.7963 27.395 83.3573 27.395C83.9219 27.395 84.3949 27.5325 84.7763 27.8075C85.1613 28.0788 85.4528 28.451 85.6508 28.924C85.8488 29.397 85.9478 29.9323 85.9478 30.53C85.9478 31.1203 85.8488 31.6538 85.6508 32.1305C85.4528 32.6035 85.1576 32.9775 84.7653 33.2525C84.3729 33.5275 83.8871 33.665 83.3078 33.665ZM83.5113 32.477C83.8669 32.477 84.1529 32.3963 84.3693 32.235C84.5893 32.07 84.7488 31.8408 84.8478 31.5475C84.9504 31.2542 85.0018 30.915 85.0018 30.53C85.0018 30.1413 84.9504 29.8022 84.8478 29.5125C84.7488 29.2192 84.5929 28.9918 84.3803 28.8305C84.1676 28.6655 83.8926 28.583 83.5553 28.583C83.1996 28.583 82.9063 28.671 82.6753 28.847C82.4443 29.0193 82.2738 29.254 82.1638 29.551C82.0538 29.8443 81.9988 30.1707 81.9988 30.53C81.9988 30.893 82.0519 31.223 82.1583 31.52C82.2683 31.8133 82.4351 32.0462 82.6588 32.2185C82.8824 32.3908 83.1666 32.477 83.5113 32.477ZM87.8146 33.5V25.415H89.1401V33.5H87.8146ZM93.4881 33.665C92.8867 33.665 92.3587 33.5348 91.9041 33.2745C91.4494 33.0142 91.0937 32.653 90.8371 32.191C90.5841 31.729 90.4576 31.1973 90.4576 30.596C90.4576 29.947 90.5822 29.3842 90.8316 28.9075C91.0809 28.4272 91.4274 28.055 91.8711 27.791C92.3147 27.527 92.8281 27.395 93.4111 27.395C94.0271 27.395 94.5496 27.5398 94.9786 27.8295C95.4112 28.1155 95.7321 28.5207 95.9411 29.045C96.1501 29.5693 96.2289 30.1872 96.1776 30.8985H94.8631V30.4145C94.8594 29.7692 94.7457 29.298 94.5221 29.001C94.2984 28.704 93.9464 28.5555 93.4661 28.5555C92.9234 28.5555 92.5201 28.7242 92.2561 29.0615C91.9921 29.3952 91.8601 29.8847 91.8601 30.53C91.8601 31.1313 91.9921 31.597 92.2561 31.927C92.5201 32.257 92.9051 32.422 93.4111 32.422C93.7374 32.422 94.0179 32.3505 94.2526 32.2075C94.4909 32.0608 94.6742 31.85 94.8026 31.575L96.1116 31.971C95.8842 32.5063 95.5322 32.9225 95.0556 33.2195C94.5826 33.5165 94.0601 33.665 93.4881 33.665ZM91.4421 30.8985V29.8975H95.5286V30.8985H91.4421ZM99.6069 33.5V25.58H102.879C102.956 25.58 103.055 25.5837 103.176 25.591C103.297 25.5947 103.409 25.6057 103.512 25.624C103.97 25.6937 104.348 25.8458 104.645 26.0805C104.946 26.3152 105.167 26.6122 105.31 26.9715C105.457 27.3272 105.53 27.7232 105.53 28.1595C105.53 28.5922 105.457 28.9882 105.31 29.3475C105.164 29.7032 104.94 29.9983 104.639 30.233C104.342 30.4677 103.967 30.6198 103.512 30.6895C103.409 30.7042 103.296 30.7152 103.171 30.7225C103.05 30.7298 102.953 30.7335 102.879 30.7335H100.932V33.5H99.6069ZM100.932 29.496H102.824C102.898 29.496 102.98 29.4923 103.072 29.485C103.164 29.4777 103.248 29.463 103.325 29.441C103.545 29.386 103.717 29.2888 103.842 29.1495C103.97 29.0102 104.06 28.8525 104.111 28.6765C104.166 28.5005 104.194 28.3282 104.194 28.1595C104.194 27.9908 104.166 27.8185 104.111 27.6425C104.06 27.4628 103.97 27.3033 103.842 27.164C103.717 27.0247 103.545 26.9275 103.325 26.8725C103.248 26.8505 103.164 26.8377 103.072 26.834C102.98 26.8267 102.898 26.823 102.824 26.823H100.932V29.496ZM106.742 33.5V25.415H108.068V33.5H106.742ZM111.376 33.665C110.947 33.665 110.584 33.5843 110.287 33.423C109.99 33.258 109.765 33.0398 109.611 32.7685C109.46 32.4972 109.385 32.1983 109.385 31.872C109.385 31.586 109.433 31.3293 109.528 31.102C109.624 30.871 109.77 30.673 109.968 30.508C110.166 30.3393 110.423 30.2018 110.738 30.0955C110.977 30.0185 111.255 29.9488 111.574 29.8865C111.897 29.8242 112.245 29.7673 112.619 29.716C112.997 29.661 113.391 29.6023 113.802 29.54L113.329 29.8095C113.332 29.3988 113.241 29.0963 113.054 28.902C112.867 28.7077 112.551 28.6105 112.108 28.6105C111.84 28.6105 111.582 28.6728 111.332 28.7975C111.083 28.9222 110.909 29.1367 110.81 29.441L109.6 29.0615C109.746 28.5592 110.025 28.1558 110.436 27.8515C110.85 27.5472 111.407 27.395 112.108 27.395C112.636 27.395 113.1 27.4812 113.499 27.6535C113.903 27.8258 114.201 28.1082 114.396 28.5005C114.502 28.7095 114.566 28.924 114.588 29.144C114.61 29.3603 114.621 29.5968 114.621 29.8535V33.5H113.461V32.213L113.653 32.422C113.386 32.851 113.072 33.1663 112.713 33.368C112.357 33.566 111.912 33.665 111.376 33.665ZM111.64 32.609C111.941 32.609 112.198 32.5558 112.41 32.4495C112.623 32.3432 112.792 32.213 112.916 32.059C113.045 31.905 113.131 31.7602 113.175 31.6245C113.244 31.4558 113.283 31.2633 113.29 31.047C113.301 30.827 113.307 30.6492 113.307 30.5135L113.714 30.6345C113.314 30.6968 112.971 30.7518 112.685 30.7995C112.399 30.8472 112.154 30.893 111.948 30.937C111.743 30.9773 111.561 31.0232 111.404 31.0745C111.25 31.1295 111.12 31.1937 111.013 31.267C110.907 31.3403 110.824 31.4247 110.766 31.52C110.711 31.6153 110.683 31.7272 110.683 31.8555C110.683 32.0022 110.72 32.1323 110.793 32.246C110.867 32.356 110.973 32.444 111.112 32.51C111.255 32.576 111.431 32.609 111.64 32.609ZM116.501 36.14L117.645 32.9995L117.667 33.9235L115.077 27.56H116.457L118.294 32.268H117.942L119.73 27.56H121.055L117.744 36.14H116.501Z" fill="#202020"/>
</svg>
