<svg width="38" height="38" viewBox="0 0 38 38" fill="none" xmlns="http://www.w3.org/2000/svg">
<path fill-rule="evenodd" clip-rule="evenodd" d="M18.6462 12.1012C20.9955 12.1012 22.9004 14.0053 22.9004 16.3554C22.9004 18.7054 20.9955 20.6095 18.6462 20.6095C16.297 20.6095 14.3921 18.7054 14.3921 16.3554C14.3921 14.0053 16.297 12.1012 18.6462 12.1012Z" fill="#FF4A42"/>
<path d="M2.09046 12.1134C2.55455 12.1307 3.03509 12.1653 3.52387 12.2204C6.20965 6.36089 12.0659 2.5371 18.6347 2.5371C25.2035 2.5371 31.0672 6.36582 33.7513 12.2319C34.5009 12.1447 35.2209 12.111 35.8907 12.0978C33.0404 5.12332 26.265 0.522758 18.6347 0.522758C11.0044 0.522758 4.2307 5.1225 1.37952 12.0945H2.09046L2.08964 12.1134H2.09046Z" fill="#FF4A42"/>
<path d="M33.5452 12.5982L33.4424 12.3736C30.8035 6.60456 24.9909 2.87705 18.6352 2.87705C12.2795 2.87705 6.47508 6.59963 3.83373 12.3621L3.73087 12.5859L3.48649 12.5579C3.02651 12.5061 2.55255 12.4707 2.07859 12.4534L1.73217 12.441V12.4353H0.874756L1.06648 11.9671C3.99254 4.80828 10.8889 0.183029 18.6352 0.183029C26.3815 0.183029 33.2795 4.80992 36.2055 11.9696L36.3931 12.4287L35.8978 12.4386C35.1004 12.4542 34.4306 12.4954 33.7913 12.5702L33.5461 12.599L33.5452 12.5982ZM18.6352 2.19737C25.1736 2.19737 31.1606 5.98496 33.9567 11.8675C34.4043 11.8214 34.8692 11.7902 35.3835 11.7721C32.4607 5.12837 25.9396 0.862705 18.6352 0.862705C11.3307 0.862705 4.82033 5.12096 1.89427 11.7556H2.45134L2.44969 11.7894C2.74181 11.805 3.0331 11.828 3.31945 11.856C6.11714 5.98002 12.1017 2.19737 18.6352 2.19737Z" fill="#FF4A42"/>
<path d="M18.3832 6.24081C14.826 6.305 11.5066 7.74992 9.03643 10.3106C8.10743 11.2734 7.34053 12.3505 6.7489 13.5091C7.39566 13.7181 8.02761 13.9641 8.64228 14.2422C9.13106 13.328 9.74655 12.4747 10.4863 11.7087C12.5829 9.53551 15.4004 8.30864 18.4202 8.25433C18.4902 8.25351 18.5593 8.25269 18.6284 8.25269C21.5709 8.25269 24.3489 9.37341 26.4727 11.4215C27.3441 12.2624 28.0608 13.2211 28.6137 14.2603C29.2267 13.9814 29.8579 13.7353 30.503 13.5255C29.8389 12.2197 28.956 11.0191 27.8707 9.97245C25.31 7.50225 21.9387 6.17581 18.384 6.24081H18.3832Z" fill="#FF4A42"/>
<path d="M28.4617 14.7023L28.312 14.4201C27.7689 13.3981 27.0703 12.4716 26.2351 11.666C24.1319 9.63684 21.3515 8.54986 18.4238 8.59429C15.4961 8.64695 12.7626 9.8368 10.7293 11.9449C10.0233 12.6773 9.42095 13.5042 8.94041 14.4028L8.79065 14.6834L8.50101 14.5526C7.88963 14.2761 7.26426 14.0342 6.64301 13.8334L6.26367 13.7108L6.44552 13.3553C7.0569 12.1581 7.84684 11.0546 8.79147 10.0754C11.325 7.44971 14.7292 5.96775 18.3769 5.90192C22.0172 5.83609 25.4781 7.1938 28.1063 9.72818C29.2072 10.7905 30.1149 12.0157 30.8052 13.3718L30.9854 13.7264L30.6077 13.8498C29.9832 14.0539 29.3595 14.2967 28.7539 14.5715L28.4626 14.704L28.4617 14.7023ZM18.627 7.91297C21.6551 7.91297 24.5252 9.07237 26.7074 11.1772C27.5171 11.9589 28.2067 12.8476 28.7596 13.8235C29.1727 13.6441 29.5923 13.4796 30.0145 13.3314C29.3842 12.1811 28.5843 11.1344 27.6331 10.217C25.1366 7.80847 21.8477 6.51165 18.3884 6.58077C14.9225 6.64249 11.6879 8.05121 9.28025 10.5461C8.47467 11.3813 7.78842 12.3103 7.23628 13.3142C7.65758 13.4615 8.07806 13.6252 8.49442 13.8054C8.97744 12.9579 9.56331 12.1745 10.2405 11.4726C12.4005 9.23365 15.3027 7.97057 18.4131 7.91462C18.4855 7.91379 18.5563 7.91297 18.6278 7.91297H18.627Z" fill="#FF4A42"/>
<path d="M37.2925 19.1695C37.2925 18.8461 37.2834 18.5162 37.2669 18.1887L37.2176 17.2317L36.1981 17.2342C36.1158 17.2342 36.0335 17.2342 35.9512 17.2358C34.7317 17.258 33.3428 17.3387 31.9077 17.7032V17.6999L31.8468 17.7196C31.4214 17.8299 30.9927 17.964 30.5632 18.1303C25.0023 19.9208 20.5408 24.337 18.6458 29.8312C16.7533 24.3378 12.2918 19.9208 6.72681 18.1278C5.142 17.5016 3.54073 17.3066 2.09087 17.2531V17.235L1.03268 17.2342H0.0748795L0.0255084 18.1887C0.00822852 18.5162 0 18.8461 0 19.1695C0 29.0799 7.78253 37.2163 17.5572 37.7832L17.5555 37.8153H17.716V37.817H18.4961L18.6458 37.8161H18.7964L19.5773 37.817V37.8153H19.732L19.7303 37.7832C29.5066 37.2188 37.2916 29.0816 37.2916 19.1695H37.2925ZM16.8076 32.2594C16.7697 32.2545 16.731 32.2504 16.6932 32.2446C16.2678 32.1821 15.8489 32.0998 15.4383 31.9986C15.4235 31.9953 15.4095 31.9904 15.3947 31.9871C15.2071 31.9402 15.022 31.89 14.8377 31.8348C14.7932 31.8217 14.7504 31.8069 14.706 31.7929C14.553 31.7451 14.3999 31.6966 14.2493 31.6439C14.1942 31.625 14.1407 31.6036 14.0864 31.5839C13.9473 31.5337 13.8091 31.4818 13.6733 31.4267C13.6149 31.4028 13.5565 31.3782 13.4981 31.3535C13.3672 31.2992 13.238 31.2432 13.1097 31.184C13.0496 31.1568 12.9904 31.128 12.9311 31.1C12.806 31.0408 12.6818 30.9799 12.5592 30.9165C12.4999 30.8861 12.4415 30.8548 12.3831 30.8236C12.2613 30.7585 12.1412 30.6919 12.0219 30.6236C11.9643 30.5907 11.9075 30.5578 11.8507 30.524C11.7322 30.4533 11.6146 30.3809 11.4985 30.306C11.4442 30.2714 11.3899 30.2369 11.3364 30.2015C11.2188 30.1241 11.1036 30.0443 10.9884 29.9637C10.9382 29.9283 10.888 29.8937 10.8386 29.8575C10.7209 29.772 10.6049 29.6839 10.4905 29.5942C10.4469 29.5597 10.4025 29.5267 10.3589 29.4922C10.2371 29.3951 10.1186 29.2955 10.0009 29.1943C9.96638 29.1647 9.931 29.1359 9.89726 29.1063C9.76478 28.9902 9.63477 28.8709 9.50723 28.7491C9.48995 28.7327 9.47184 28.7171 9.45457 28.6998C9.01434 28.2768 8.60374 27.8243 8.22605 27.3445C8.20218 27.3141 8.17914 27.282 8.15528 27.2516C8.05736 27.1248 7.96027 26.9965 7.86646 26.8656C7.8319 26.8179 7.79981 26.7685 7.76607 26.72C7.68543 26.6048 7.60562 26.4888 7.52909 26.3703C7.49124 26.3119 7.45504 26.2526 7.41801 26.1942C7.34889 26.0839 7.27977 25.9728 7.21312 25.8601C7.17444 25.7943 7.13741 25.7276 7.09956 25.6618C7.03867 25.554 6.9786 25.4454 6.92018 25.3351C6.88233 25.2635 6.8453 25.1911 6.8091 25.1187C6.75479 25.0118 6.70213 24.904 6.65111 24.7962C6.6149 24.7196 6.57952 24.6423 6.54496 24.5649C6.49724 24.4588 6.45116 24.3518 6.40672 24.244C6.37299 24.1626 6.33925 24.0819 6.30716 23.9996C6.26519 23.8935 6.2257 23.7865 6.1862 23.6787C6.15493 23.5932 6.12448 23.5084 6.09486 23.422C6.05866 23.3167 6.02574 23.2097 5.99201 23.1027C5.96403 23.0131 5.93523 22.9242 5.90972 22.8337C5.87927 22.7283 5.85212 22.623 5.82414 22.5169C5.82003 22.5012 5.81591 22.4856 5.8118 22.47C6.47996 22.7958 7.39085 23.1933 8.2425 23.413C8.24662 23.4237 8.25156 23.4344 8.25567 23.445C8.29681 23.5438 8.33878 23.6425 8.38239 23.7396C8.4079 23.7956 8.43258 23.8515 8.45891 23.9067C8.50582 24.0062 8.55437 24.1042 8.60374 24.2021C8.62842 24.2514 8.65311 24.3016 8.67862 24.351C8.74938 24.486 8.82261 24.6193 8.89832 24.7509C8.91477 24.7797 8.93205 24.8077 8.94851 24.8357C9.01845 24.9542 9.09004 25.0718 9.1641 25.187C9.19866 25.2405 9.23404 25.2932 9.26942 25.3458C9.32373 25.4281 9.37886 25.5096 9.43564 25.5902C9.47596 25.6478 9.5171 25.7046 9.55907 25.7614C9.61337 25.8363 9.66851 25.9095 9.72528 25.9827C9.76889 26.0395 9.81333 26.0963 9.85776 26.1522C9.91618 26.2255 9.97625 26.2971 10.0363 26.3686C10.0808 26.4213 10.1244 26.4748 10.1696 26.5266C10.2453 26.6138 10.3235 26.6986 10.4017 26.7825C10.4609 26.8467 10.521 26.9101 10.5819 26.9726C10.66 27.0533 10.7382 27.1331 10.8189 27.2112C10.8715 27.2623 10.9258 27.3116 10.9793 27.361C11.0435 27.4211 11.1085 27.4811 11.1743 27.5396C11.2319 27.5906 11.2912 27.6416 11.3496 27.691C11.4138 27.7461 11.4788 27.8004 11.5446 27.8539C11.6055 27.9033 11.6656 27.9518 11.7273 28.0004C11.7948 28.053 11.8639 28.104 11.933 28.1559C11.9939 28.2011 12.0548 28.2472 12.1173 28.2916C12.1988 28.3492 12.2811 28.4052 12.3642 28.4603C12.4563 28.522 12.5493 28.5829 12.6431 28.6422C12.7303 28.6973 12.8176 28.7524 12.9064 28.8051C12.9723 28.8446 13.0397 28.8816 13.1072 28.9195C13.1821 28.9614 13.257 29.0034 13.3327 29.0445C13.4034 29.0824 13.4742 29.1186 13.5458 29.1548C13.6207 29.1927 13.6964 29.2297 13.7721 29.2667C13.8445 29.3013 13.9169 29.3358 13.9901 29.3688C14.0683 29.4041 14.1481 29.4379 14.2271 29.4716C14.2987 29.5021 14.3703 29.5333 14.4435 29.5629C14.5365 29.6 14.6311 29.6354 14.7258 29.6699C14.8261 29.7069 14.9274 29.7432 15.0294 29.7777C15.1355 29.8139 15.2425 29.8493 15.3503 29.8822C15.4227 29.9044 15.4968 29.9242 15.57 29.9447C15.6572 29.9694 15.7453 29.9941 15.8333 30.0163C15.9107 30.0361 15.988 30.0542 16.0654 30.0723C16.1526 30.0929 16.2398 30.1118 16.3278 30.1307C16.406 30.1472 16.4842 30.1628 16.5624 30.1776C16.5895 30.1826 16.6167 30.1867 16.6438 30.1916C16.8141 30.6376 17.0577 31.3675 17.2478 32.3129C17.1013 32.2973 16.9565 32.2775 16.8117 32.2578L16.8076 32.2594ZM31.4675 22.5177C31.4395 22.6238 31.4124 22.73 31.3819 22.8345C31.3556 22.925 31.3276 23.0139 31.2996 23.1036C31.2659 23.2105 31.233 23.3167 31.1968 23.4228C31.1672 23.5092 31.1367 23.594 31.1054 23.6796C31.0668 23.7874 31.0264 23.8943 30.9845 24.0005C30.9524 24.0828 30.9186 24.1634 30.8849 24.2449C30.8397 24.3527 30.7936 24.4596 30.7467 24.5658C30.7121 24.6431 30.6767 24.7205 30.6405 24.797C30.5895 24.9056 30.5368 25.0134 30.4825 25.1195C30.4463 25.192 30.4093 25.2644 30.3715 25.336C30.313 25.4462 30.253 25.5548 30.1921 25.6626C30.1542 25.7293 30.1172 25.7951 30.0785 25.8609C30.0119 25.9737 29.9436 26.0848 29.8736 26.195C29.8366 26.2534 29.8004 26.3135 29.7625 26.3711C29.6852 26.4896 29.6062 26.6056 29.5256 26.7208C29.4918 26.7694 29.4589 26.8179 29.4252 26.8665C29.3314 26.9973 29.2343 27.1248 29.1364 27.2524C29.1125 27.2828 29.0895 27.3149 29.0656 27.3454C28.6879 27.8251 28.2773 28.2777 27.8371 28.7006C27.8198 28.7171 27.8017 28.7327 27.7844 28.75C27.6569 28.8718 27.5269 28.9911 27.3944 29.1071C27.3606 29.1367 27.3253 29.1655 27.2907 29.1951C27.173 29.2963 27.0537 29.3959 26.9328 29.493C26.8891 29.5276 26.8447 29.5613 26.8011 29.595C26.6867 29.6847 26.5707 29.7728 26.453 29.8584C26.4037 29.8946 26.3535 29.9291 26.3033 29.9645C26.1889 30.0451 26.0729 30.125 25.9552 30.2023C25.9017 30.2377 25.8474 30.2722 25.7931 30.3068C25.6771 30.3809 25.5594 30.4541 25.4409 30.5249C25.3841 30.5586 25.3274 30.5915 25.2698 30.6244C25.1505 30.6927 25.0303 30.7594 24.9085 30.8244C24.8501 30.8556 24.7917 30.8869 24.7325 30.9174C24.6098 30.9807 24.4856 31.0416 24.3605 31.1009C24.3013 31.1288 24.242 31.1576 24.182 31.1848C24.0536 31.2432 23.9236 31.2992 23.7936 31.3543C23.7352 31.379 23.6776 31.4037 23.6183 31.4275C23.4817 31.4827 23.3435 31.5337 23.2052 31.5847C23.1509 31.6044 23.0966 31.6258 23.0423 31.6448C22.8917 31.6974 22.7387 31.746 22.5856 31.7937C22.5412 31.8077 22.4984 31.8225 22.454 31.8357C22.2697 31.89 22.0845 31.941 21.8969 31.9879C21.8821 31.9912 21.8681 31.9961 21.8533 31.9994C21.4427 32.1006 21.0239 32.1829 20.5984 32.2454C20.5606 32.2512 20.5219 32.2545 20.4841 32.2603C20.3392 32.28 20.1944 32.2997 20.048 32.3154C20.2389 31.3708 20.4816 30.6409 20.6519 30.1941C20.6791 30.1891 20.7062 30.185 20.7334 30.1801C20.8124 30.1653 20.8897 30.1496 20.9679 30.1332C21.056 30.1151 21.1432 30.0953 21.2304 30.0748C21.3077 30.0567 21.3859 30.0386 21.4624 30.0188C21.5505 29.9958 21.6385 29.9719 21.7257 29.9472C21.799 29.9266 21.873 29.9069 21.9455 29.8847C22.0532 29.8518 22.1602 29.8164 22.2664 29.7802C22.3684 29.7456 22.4696 29.7094 22.57 29.6724C22.6646 29.6378 22.7593 29.6024 22.8522 29.5654C22.9246 29.5366 22.9962 29.5053 23.0686 29.4741C23.1476 29.4403 23.2275 29.4066 23.3056 29.3712C23.3789 29.3383 23.4513 29.3037 23.5237 29.2692C23.5994 29.233 23.6751 29.196 23.75 29.1573C23.8216 29.1211 23.8923 29.0849 23.9631 29.047C24.0388 29.0067 24.1137 28.9647 24.1885 28.9219C24.2552 28.8841 24.3227 28.8471 24.3893 28.8076C24.4782 28.7549 24.5654 28.6998 24.6526 28.6446C24.7464 28.5854 24.8394 28.5245 24.9316 28.4628C25.0147 28.4068 25.097 28.3517 25.1784 28.2941C25.2401 28.2497 25.301 28.2036 25.3628 28.1583C25.4319 28.1073 25.5002 28.0555 25.5685 28.0028C25.6302 27.9551 25.6911 27.9057 25.7511 27.8564C25.817 27.8029 25.882 27.7486 25.9462 27.6934C26.0054 27.6432 26.0638 27.593 26.1214 27.542C26.1873 27.4836 26.2514 27.4235 26.3164 27.3635C26.3699 27.3133 26.4242 27.2639 26.4769 27.2137C26.5575 27.1355 26.6357 27.0557 26.7139 26.9751C26.7748 26.9125 26.8348 26.8492 26.8941 26.785C26.9723 26.7002 27.0504 26.6155 27.1261 26.5291C27.1714 26.4773 27.215 26.4238 27.2594 26.3711C27.3195 26.2995 27.3796 26.2279 27.438 26.1547C27.4824 26.0987 27.5269 26.042 27.5705 25.9852C27.6264 25.912 27.6824 25.8379 27.7367 25.7638C27.7778 25.7071 27.8198 25.6503 27.8601 25.5927C27.9169 25.512 27.972 25.4306 28.0263 25.3483C28.0617 25.2956 28.0971 25.243 28.1317 25.1895C28.2057 25.0735 28.2773 24.9566 28.3472 24.8381C28.3637 24.8102 28.381 24.7814 28.3974 24.7534C28.4731 24.6217 28.5464 24.4884 28.6171 24.3535C28.6426 24.3041 28.6673 24.2539 28.692 24.2045C28.7414 24.1066 28.7899 24.0087 28.8368 23.9091C28.8632 23.854 28.8879 23.798 28.9134 23.7421C28.957 23.645 28.9998 23.5463 29.0401 23.4475C29.0442 23.4368 29.0491 23.4261 29.0532 23.4154C29.9049 23.1957 30.8158 22.7983 31.4839 22.4724C31.4798 22.4881 31.4757 22.5037 31.4716 22.5193L31.4675 22.5177Z" fill="#009152"/>
</svg>
