<svg width="19" height="20" viewBox="0 0 19 20" fill="none" xmlns="http://www.w3.org/2000/svg">
<path d="M1.13708 1.43401L9.87708 10.005L1.20208 18.655C1.06015 18.4702 0.94998 18.263 0.876078 18.042C0.837857 17.7918 0.837857 17.5372 0.876078 17.287V2.56701C0.850078 2.17201 0.941078 1.77701 1.13608 1.43401M10.7901 10.93L13.6291 13.718L11.5711 14.864L5.29208 18.354C4.77208 18.641 4.25008 18.915 3.74208 19.228C3.52471 19.3633 3.28096 19.4507 3.02712 19.4844C2.77328 19.518 2.51519 19.4971 2.27008 19.423L10.7901 10.93ZM18.1501 10.005C18.1574 10.3547 18.069 10.6997 17.8945 11.0028C17.7201 11.306 17.4661 11.5557 17.1601 11.725L14.8141 13.027L11.7271 10.005L14.8271 6.93101C15.6221 7.37401 16.4041 7.81701 17.1851 8.23401C17.4966 8.4081 17.7524 8.66681 17.923 8.98021C18.0936 9.29362 18.173 9.64891 18.1501 10.005Z" fill="#202020"/>
<path d="M10.7891 9.093L13.6421 6.267C13.1471 5.98 12.6521 5.693 12.1441 5.42L4.32808 1.095C3.92508 0.842002 3.48608 0.648002 3.02608 0.522002C2.73308 0.476002 2.43308 0.503002 2.15308 0.600002L10.7891 9.093Z" fill="#202020"/>
</svg>
