<svg width="142" height="121" viewBox="0 0 142 121" fill="none" xmlns="http://www.w3.org/2000/svg">
<path style="mix-blend-mode:multiply" d="M141.998 111.815C141.998 116.643 110.211 120.554 70.9985 120.554C31.7861 120.554 0 116.64 0 111.815C0 106.991 31.7876 103.077 71 103.077C110.212 103.077 142 106.988 142 111.815H141.998Z" fill="url(#paint0_radial_57_769)" fill-opacity="0.34"/>
<path d="M111.439 5.9449C111.309 5.41956 111.238 4.88949 111.101 4.34049C111.036 4.07901 111.155 3.78202 110.853 3.58088C110.679 3.46375 110.396 3.64714 110.195 3.73706C110.124 3.76901 110.091 3.85065 110.08 3.8542C109.668 4.03168 109.006 4.27068 108.566 4.31446C107.981 4.37362 107.133 4.10503 106.8 4.65759C106.715 4.66587 106.615 4.7203 106.531 4.72503C106.29 4.73804 106.073 4.71556 105.862 4.72503C105.818 4.72739 105.768 4.71793 105.729 4.72503C105.499 4.76526 104.999 5.06342 104.74 5.11193C104.598 5.13796 104.49 5.02793 104.283 5.11903C104.148 5.17819 104.128 5.31662 104.076 5.32964C103.791 5.39708 103.285 5.3533 102.985 5.3959C102.963 5.39945 102.94 5.39235 102.917 5.3959C102.48 5.45861 102.013 5.60296 101.578 5.71418C101.624 5.70589 101.661 5.70944 101.69 5.72009L101.512 5.73074C101.49 5.73547 101.466 5.72601 101.444 5.73074C100.519 5.95555 100.464 6.00524 99.7702 6.60157C99.7631 6.60749 99.7076 6.59447 99.6615 6.6276C99.6153 6.66073 99.6733 6.75539 99.503 6.73527C99.4333 6.72699 99.4085 6.57909 99.2347 6.73527C99.1862 6.77905 99.1496 6.89264 99.1011 6.93641C98.9911 6.90447 98.8812 6.87725 98.7665 6.86897C98.7216 6.8666 98.6767 6.87134 98.6329 6.86897C98.5573 6.74829 98.3563 6.81455 98.231 6.80153C98.1648 6.79443 98.0962 6.80626 98.03 6.80153C98.0075 6.79325 97.9863 6.78852 97.965 6.78497C97.8799 6.75302 97.7664 6.69268 97.6079 6.73409C97.5453 6.75065 97.5015 6.97546 97.297 7.04054C97.0925 7.10561 96.6929 7.09496 96.4234 7.13756C95.7152 7.25114 94.9385 7.61438 94.2469 7.65934C91.7915 7.82026 89.1563 7.48068 86.6476 7.3387C86.5814 7.33515 86.5129 7.34225 86.4467 7.3387C86.1819 7.14466 85.839 7.22985 85.5399 7.20736C85.4536 7.20026 85.3649 7.13756 85.3413 7.13756H83.9356C83.7618 7.13756 83.4036 7.08076 83.166 7.07012C83.0774 7.06657 82.9875 7.07367 82.8977 7.07012C82.4981 7.05237 82.0524 7.02397 81.6256 7.00267C81.5807 7.00031 81.5357 7.00504 81.492 7.00267C80.2329 6.94233 79.0223 6.81928 77.7739 6.79798C77.6344 6.79561 77.4855 6.8808 77.3767 6.86779C77.2798 6.85596 77.2159 6.7542 77.1604 6.74474C77.08 6.73054 77.0055 6.85596 76.9038 6.86779C76.5397 6.9092 75.6991 6.70214 75.1624 6.73054C74.2793 6.77787 73.3714 6.82874 72.5214 6.86779C70.0931 6.97783 67.7381 7.08076 65.2543 7.0713C64.6785 7.06893 63.3627 6.89382 62.8804 7.06893C62.4725 6.91275 62.0907 7.0642 61.7112 7.0713C60.9723 7.0855 60.1672 6.97782 59.4295 7.06656C59.1588 7.09969 58.8348 7.2961 58.5558 7.33042C57.7129 7.43572 57.4729 7.13637 56.8203 7.06893C56.0708 6.99202 55.2669 7.03698 54.5599 7.01924C53.7951 6.99912 51.8669 6.96599 51.1989 6.7329C50.0675 6.33772 48.8534 6.34837 47.6156 6.1981C47.5932 6.19574 47.5707 6.20047 47.5482 6.1981C47.4678 6.09161 47.2952 6.12829 47.1546 6.13303C47.1297 6.13303 47.1049 6.13066 47.0801 6.13184C46.7006 6.08333 46.3175 6.00169 45.9416 5.9307C45.9298 5.92833 45.8423 5.88219 45.7406 5.86326C45.6295 5.84314 45.5184 5.81711 45.4061 5.79582C45.3954 5.79345 45.3032 5.74731 45.2051 5.72837C45.1838 5.72482 45.1602 5.73311 45.1377 5.72837C45.062 5.6491 44.9237 5.62662 44.8185 5.61242C43.9862 5.49292 43.6008 5.17582 42.7224 5.16281C42.6267 5.16163 42.5167 5.14743 42.3961 5.12495C42.2271 5.08472 42.058 5.04331 41.889 5.00189C41.1572 4.79247 40.2622 4.4387 39.6841 4.33102C38.6958 4.14526 37.1542 4.08492 36.2167 3.70275C36.0677 3.64241 36.037 3.48741 35.8632 3.4531C35.4293 3.36909 34.9754 3.63176 34.564 3.41287C34.4032 3.32768 34.3263 3.08986 34.1218 3.05081C33.6761 2.96562 33.0247 3.13363 32.5199 3.04608C32.1972 2.98929 31.5446 2.7136 31.21 2.58108C30.9582 2.48051 30.7726 2.18472 30.4085 2.348C30.1236 2.47578 30.2418 2.78578 30.198 3.00822C30.1023 3.49688 30.0278 4.07664 29.9226 4.54045C29.8883 4.69072 29.6637 5.1001 29.6755 5.15216C29.6826 5.18292 30.0361 5.47044 30.1389 5.59467C30.0976 5.88456 30.2536 6.16142 30.3269 6.41936C30.3293 6.43356 30.3328 6.44894 30.3399 6.4655C30.574 7.42271 30.4995 8.27224 30.5409 9.21169C30.5787 10.0612 30.7218 10.7984 30.7419 11.6893C30.7785 13.2831 30.7265 14.8946 30.7395 16.4753C30.7525 18.0111 30.6946 19.5575 30.9428 21.0661C30.9499 21.1087 30.9346 21.1584 30.9428 21.1998C30.9617 21.2992 30.9901 21.3796 31.0102 21.4672C31.346 22.9627 31.7988 24.9008 32.2646 26.3408C32.6275 27.4624 33.1985 28.5415 33.5567 29.6691C33.9563 30.9233 34.0698 32.2129 34.5261 33.4553C34.6881 33.8954 34.8394 34.0824 34.96 34.5947C35.1078 35.2194 35.2343 35.8797 35.3537 36.5115C35.8183 38.982 36.2805 41.4288 37.0041 43.8343C37.9108 46.8467 38.6592 49.9194 39.4406 52.9839C39.56 53.4524 39.7338 54.1257 39.7716 54.5942C39.8 54.9539 39.6889 55.3053 39.7161 55.5822C39.7444 55.8768 39.9241 56.3276 39.9738 56.6695C40.3095 58.9957 40.5058 61.3443 40.9006 63.6456C41.1288 64.9779 41.3038 66.5894 41.6194 67.8826C41.6655 68.0708 41.8358 68.3169 41.8429 68.3914C41.8582 68.5358 41.6502 68.6955 41.6584 68.9108C41.6667 69.1321 41.9209 69.4291 41.9091 69.5758C41.8913 69.797 41.474 70.2112 41.4504 70.5247C41.4314 70.7838 41.571 71.0524 41.5911 71.3257C41.6632 72.3314 41.3629 73.175 41.5178 74.1464C41.5367 74.2683 41.5071 74.3973 41.5213 74.5085C41.3251 74.6931 41.3499 75.0007 41.3203 75.2456C41.299 75.4302 41.2269 75.3557 41.3203 75.6479C41.3782 75.9804 41.182 76.2525 41.1253 76.5578C41.0791 76.8051 41.117 77.1518 41.0366 77.4061C40.6145 78.7479 40.4455 79.5371 40.2327 80.9545C40.0412 82.2253 39.6168 83.3481 39.4371 84.7124C39.346 85.4033 39.1545 86.0411 39.2455 86.764C39.1722 87.3367 38.9512 88.0833 38.9145 88.6157C38.8991 88.8464 38.9985 89.0251 38.9736 89.2688C38.9476 89.5173 38.7395 89.8415 38.6733 90.1101C38.2454 91.8506 38.1957 93.6443 37.8068 95.4049C37.7465 95.6794 37.5632 95.9929 37.5207 96.2579C37.4616 96.6235 37.5006 97.0424 37.4202 97.4305C37.3067 97.9759 37.0017 98.829 36.835 99.423C36.809 99.5153 36.7924 99.604 36.7676 99.6904C36.7487 99.7566 36.7203 99.8229 36.7002 99.8915C36.6837 99.9471 36.6553 100.017 36.6328 100.093C36.5879 100.248 36.543 100.409 36.4992 100.561C36.4709 100.661 36.4555 100.751 36.4319 100.829C36.4047 100.922 36.3893 101.02 36.3645 101.096C36.1588 101.757 35.7994 102.97 35.3631 103.477C35.2556 103.602 35.1019 103.636 35.0097 103.794C34.8784 104.018 34.8642 104.44 34.7567 104.713C34.6916 104.881 34.5179 105.134 34.4221 105.315C34.3677 105.418 34.285 105.531 34.2211 105.65C34.1135 105.851 33.9941 106.046 33.8865 106.252C33.8865 106.246 33.8877 106.245 33.8925 106.249C33.8901 106.25 33.8889 106.251 33.8865 106.252C33.8227 106.375 33.7979 106.578 33.753 106.655C33.7459 106.666 33.6076 106.79 33.552 106.856C33.4196 107.017 33.1618 107.172 33.0566 107.398C33.0259 107.464 32.8698 107.962 32.8876 107.987C32.8959 107.998 33.046 108.039 33.1205 108.124C33.4196 108.459 33.6797 108.8 33.6856 109.266C33.3593 109.254 33.2978 108.92 33.1524 108.762C32.9869 108.583 32.6287 108.515 32.514 108.196L31.9465 108.965C32.0577 109.123 32.2787 109.129 32.4135 109.2C33.0685 109.545 33.4811 109.679 34.1537 109.937C35.1184 110.306 36.1328 110.811 37.166 110.808C37.2771 110.808 37.3895 110.808 37.5006 110.808C37.6696 110.844 37.8221 110.847 37.9687 110.875L38.035 110.892C38.0905 110.907 38.1591 110.928 38.2371 110.943C38.2785 110.95 38.3293 110.935 38.3707 110.943L38.431 110.958C38.4866 110.973 38.561 110.997 38.6379 111.01C38.8341 111.043 39.0446 111.048 39.2408 111.077L39.2857 111.088C39.3401 111.103 39.4241 111.132 39.5092 111.144C39.573 111.153 39.6463 111.134 39.7101 111.144C39.7492 111.15 39.8603 111.195 39.9785 111.211C40.0223 111.217 40.0695 111.205 40.1121 111.211C40.1476 111.216 40.2611 111.262 40.3805 111.279C40.488 111.293 40.6074 111.264 40.715 111.279C40.78 111.382 40.9408 111.348 41.0638 111.345C41.0815 111.345 41.0992 111.346 41.117 111.345C41.318 111.37 41.5201 111.387 41.7199 111.412L41.7412 111.418C41.7873 111.431 41.8901 111.468 41.9871 111.48C42.2543 111.513 42.5203 111.536 42.791 111.547C42.8643 111.662 43.0664 111.609 43.1929 111.615C43.3265 111.619 43.4613 111.606 43.5949 111.615C43.6055 111.615 43.6528 111.671 43.7959 111.682C43.9058 111.689 44.0193 111.68 44.1304 111.682C44.2037 111.794 44.4059 111.747 44.5324 111.749C44.6211 111.749 44.7109 111.749 44.8008 111.749C44.8835 111.856 45.133 111.828 45.2689 111.817C45.3127 111.813 45.3588 111.819 45.4025 111.817C46.009 111.895 46.6344 111.975 47.2444 112.017C49.3972 112.165 51.589 112.222 53.704 112.285C54.5576 112.311 55.397 112.386 56.2482 112.419C56.2931 112.42 56.338 112.419 56.3817 112.419C56.455 112.532 56.6572 112.484 56.7837 112.487C57.006 112.489 57.2306 112.487 57.4528 112.487C57.7756 112.611 58.2284 112.553 58.5913 112.554C58.9696 112.554 59.3515 112.554 59.7298 112.554C60.0797 112.669 60.5609 112.633 60.9345 112.621C61.0018 112.619 61.068 112.624 61.1354 112.621C61.2832 112.617 61.4523 112.555 61.47 112.554C61.8921 112.542 62.32 112.558 62.7421 112.554C62.9099 112.553 63.1665 112.606 63.2776 112.487C63.3887 112.487 63.501 112.488 63.6122 112.487C63.7588 112.485 63.9893 112.536 64.0803 112.419C64.1465 112.419 64.2151 112.423 64.2813 112.419C64.4137 112.412 64.5497 112.422 64.6833 112.419C65.9364 112.4 67.2049 112.521 68.4628 112.556C72.0201 112.656 75.5939 112.624 79.1441 112.62C79.5945 112.743 80.1431 112.687 80.6172 112.688C81.0179 112.688 81.4211 112.688 81.8218 112.688C82.3905 112.688 82.9615 112.696 83.5301 112.688C83.6436 112.687 83.8281 112.73 83.8978 112.619C84.2761 112.619 84.658 112.619 85.0363 112.619C85.3768 112.619 85.8083 112.676 86.1074 112.552C86.3083 112.552 86.5093 112.553 86.7103 112.552C86.9207 112.55 87.2257 112.607 87.3794 112.484C87.513 112.484 87.6478 112.485 87.7814 112.484C87.928 112.482 88.1585 112.534 88.2495 112.417C88.4943 112.414 88.7425 112.429 88.9861 112.417C89.1327 112.41 89.1764 112.351 89.187 112.349C89.3194 112.341 89.4554 112.353 89.589 112.349C89.7155 112.346 89.9177 112.396 89.9909 112.282C90.0583 112.282 90.1245 112.282 90.1919 112.282C90.3385 112.281 90.569 112.332 90.6601 112.214C90.705 112.214 90.7499 112.216 90.7937 112.214C92.4748 112.165 94.1452 111.988 95.8145 111.812C95.9458 111.798 96.0049 111.746 96.0155 111.745C96.1396 111.731 96.2874 111.748 96.4175 111.745C96.525 111.742 96.6953 111.785 96.752 111.677C96.8632 111.675 96.9767 111.686 97.0866 111.677C97.2261 111.667 97.2769 111.611 97.2876 111.61C97.4188 111.598 97.5583 111.623 97.6895 111.61C97.8219 111.597 97.8799 111.544 97.8905 111.542C98.0005 111.531 98.1163 111.554 98.2251 111.542C98.3303 111.532 98.4402 111.49 98.4804 111.479L98.4934 111.475C98.6022 111.463 98.7192 111.487 98.828 111.475C98.932 111.463 99.042 111.423 99.0822 111.411L99.0952 111.408C99.2039 111.396 99.321 111.419 99.4297 111.408C99.5326 111.396 99.6355 111.358 99.6792 111.345L99.6969 111.34C99.8057 111.327 99.9227 111.353 100.031 111.34C100.159 111.326 100.222 111.274 100.232 111.273C100.363 111.258 100.504 111.287 100.634 111.273C100.769 111.257 100.911 111.212 100.969 111.205C101.056 111.196 101.15 111.216 101.237 111.205C101.339 111.193 101.443 111.156 101.487 111.142L101.505 111.138C101.57 111.131 101.64 111.145 101.706 111.138C101.806 111.126 101.905 111.089 101.951 111.076L101.973 111.07C102.194 111.043 102.421 111.027 102.642 111.003C102.752 111.003 102.862 111.001 102.972 110.998C103.293 111.01 103.631 111.049 103.914 110.937C104.023 110.932 104.146 110.95 104.248 110.937C104.373 110.92 104.395 110.885 104.449 110.869C104.919 110.741 105.134 110.533 105.521 110.333C105.627 110.278 105.69 110.216 105.721 110.199C106.159 109.968 106.782 109.768 107.262 109.597C107.521 109.505 109.235 109.049 109.271 108.893L108.769 108.192C108.651 108.497 108.346 108.558 108.171 108.731C108.093 108.807 107.859 109.372 107.697 109.13C107.472 108.794 108.405 108.005 108.402 107.897C108.38 107.269 107.857 107.013 107.567 106.58C107.482 106.452 107.464 106.308 107.397 106.181C107.31 106.02 107.209 105.858 107.128 105.713C106.94 105.369 106.64 104.9 106.511 104.554C106.34 104.094 106.491 104.073 106.123 103.636C106.053 103.552 105.966 103.487 105.922 103.435C105.665 103.123 105.329 102.303 105.186 101.895C105.071 101.568 105.015 101.22 104.918 100.89L104.85 100.623C104.757 100.288 104.626 99.9649 104.533 99.6336C104.238 98.5711 103.943 97.4802 103.778 96.4035C103.712 95.9752 103.592 95.7054 103.501 95.3067C103.101 93.5342 103.026 91.7559 102.608 89.9716C102.556 89.7527 102.405 89.5587 102.378 89.3315C102.345 89.0618 102.44 88.8807 102.434 88.6737C102.42 88.1744 102.103 87.2645 102.045 86.7179C101.976 86.073 102.003 85.5004 101.904 84.8165C101.904 84.7964 101.904 84.7762 101.904 84.7561C101.909 84.6331 101.938 84.4793 101.838 84.4142C101.831 84.3728 101.845 84.3219 101.838 84.2805C101.834 84.2154 101.827 84.1503 101.819 84.0864C101.694 82.9612 101.24 81.8668 101.053 80.7451C100.995 80.3973 101.019 80.0222 100.949 79.6436C100.845 79.0733 100.67 78.484 100.55 77.8995C100.508 77.6901 100.284 77.515 100.244 77.3352C100.102 76.6998 100.066 75.9094 100.029 75.274C100.01 74.9487 99.7974 74.5688 99.7832 74.3251C99.769 74.0885 99.9736 73.898 99.9641 73.7371C99.9582 73.6247 99.8459 73.5182 99.8317 73.3928C99.7489 72.6592 99.7655 71.8901 99.7608 71.153C99.7832 70.966 99.9074 70.6264 99.8825 70.4632C99.8577 70.2963 99.477 69.8313 99.4357 69.6302C99.3872 69.3948 99.6272 69.1995 99.6331 68.9096C99.639 68.6529 99.477 68.5038 99.4889 68.3772C99.5007 68.2447 99.6508 68.195 99.6804 68.0932C99.8601 67.4922 99.8624 66.5515 99.9795 65.915C100.143 65.0311 100.426 64.139 100.563 63.2504C100.582 63.1274 100.546 62.9724 100.563 62.8481C100.588 62.6778 100.606 62.4896 100.631 62.3122C100.647 62.1938 100.683 62.0838 100.698 61.9773C100.71 61.8933 100.748 61.7738 100.766 61.6425C100.95 60.2806 101.12 58.8821 101.294 57.5167C101.48 56.0637 101.5 54.4522 101.856 53.056C102.011 52.4467 102.261 51.8291 102.42 51.2091C102.875 49.4284 103.115 47.4548 103.693 45.7179C103.893 45.118 104.352 44.4436 104.315 43.7609C104.47 43.5988 104.452 43.3349 104.516 43.1586C104.799 42.3766 104.782 42.0405 104.947 41.2797C105.185 40.1877 105.557 39.1157 105.766 38.0141C106.108 36.218 106.209 35.094 106.843 33.3322C107.254 32.194 107.366 30.9564 107.728 29.7969C108.133 28.4954 108.802 27.2589 109.168 25.9468C109.604 24.3826 110.164 22.3688 110.407 20.7904C110.755 18.5163 110.559 15.8376 110.54 13.4901C110.676 13.0831 110.591 12.5838 110.608 12.1507C110.617 11.9106 110.585 11.6467 110.608 11.4136C110.642 11.0551 110.675 10.7321 110.705 10.4138C110.716 10.4138 110.728 10.4138 110.741 10.4091C110.764 10.344 110.752 10.2813 110.722 10.2221C110.759 9.81749 110.788 9.41047 110.809 8.93601C110.831 8.40357 110.883 8.04625 111.01 7.52919C111.044 7.39076 111.102 7.21565 111.143 7.06065C111.162 6.99084 111.127 6.90802 111.177 6.7968C111.26 6.61813 111.608 6.51993 111.612 6.3602C111.616 6.2478 111.465 6.07742 111.429 5.93662L111.439 5.9449Z" fill="#B7B7B7"/>
<mask id="mask0_57_769" style="mask-type:alpha" maskUnits="userSpaceOnUse" x="29" y="2" width="83" height="111">
<path d="M111.439 5.9449C111.309 5.41956 111.238 4.88949 111.101 4.34049C111.036 4.07901 111.155 3.78202 110.853 3.58088C110.679 3.46375 110.396 3.64714 110.195 3.73706C110.124 3.76901 110.091 3.85065 110.08 3.8542C109.668 4.03168 109.006 4.27068 108.566 4.31446C107.981 4.37362 107.133 4.10503 106.8 4.65759C106.715 4.66587 106.615 4.7203 106.531 4.72503C106.29 4.73804 106.073 4.71556 105.862 4.72503C105.818 4.72739 105.768 4.71793 105.729 4.72503C105.499 4.76526 104.999 5.06342 104.74 5.11193C104.598 5.13796 104.49 5.02793 104.283 5.11903C104.148 5.17819 104.128 5.31662 104.076 5.32964C103.791 5.39708 103.285 5.3533 102.985 5.3959C102.963 5.39945 102.94 5.39235 102.917 5.3959C102.48 5.45861 102.013 5.60296 101.578 5.71418C101.624 5.70589 101.661 5.70944 101.69 5.72009L101.512 5.73074C101.49 5.73547 101.466 5.72601 101.444 5.73074C100.519 5.95555 100.464 6.00524 99.7702 6.60157C99.7631 6.60749 99.7076 6.59447 99.6615 6.6276C99.6153 6.66073 99.6733 6.75539 99.503 6.73527C99.4333 6.72699 99.4085 6.57909 99.2347 6.73527C99.1862 6.77905 99.1496 6.89264 99.1011 6.93641C98.9911 6.90447 98.8812 6.87725 98.7665 6.86897C98.7216 6.8666 98.6767 6.87134 98.6329 6.86897C98.5573 6.74829 98.3563 6.81455 98.231 6.80153C98.1648 6.79443 98.0962 6.80626 98.03 6.80153C98.0075 6.79325 97.9863 6.78852 97.965 6.78497C97.8799 6.75302 97.7664 6.69268 97.6079 6.73409C97.5453 6.75065 97.5015 6.97546 97.297 7.04054C97.0925 7.10561 96.6929 7.09496 96.4234 7.13756C95.7152 7.25114 94.9385 7.61438 94.2469 7.65934C91.7915 7.82026 89.1563 7.48068 86.6476 7.3387C86.5814 7.33515 86.5129 7.34225 86.4467 7.3387C86.1819 7.14465 85.839 7.22985 85.5399 7.20736C85.4536 7.20026 85.3649 7.13756 85.3413 7.13756H83.9356C83.7618 7.13756 83.4036 7.08076 83.166 7.07012C83.0774 7.06657 82.9875 7.07366 82.8977 7.07012C82.4981 7.05237 82.0524 7.02397 81.6256 7.00267C81.5807 7.00031 81.5357 7.00504 81.492 7.00267C80.2329 6.94233 79.0223 6.81928 77.7739 6.79798C77.6344 6.79561 77.4855 6.8808 77.3767 6.86779C77.2798 6.85596 77.2159 6.7542 77.1604 6.74474C77.08 6.73054 77.0055 6.85596 76.9038 6.86779C76.5397 6.9092 75.6991 6.70214 75.1624 6.73054C74.2793 6.77787 73.3714 6.82874 72.5214 6.86779C70.0931 6.97783 67.7381 7.08076 65.2543 7.0713C64.6785 7.06893 63.3627 6.89382 62.8804 7.06893C62.4725 6.91275 62.0907 7.0642 61.7112 7.0713C60.9723 7.0855 60.1672 6.97782 59.4295 7.06656C59.1588 7.09969 58.8348 7.2961 58.5558 7.33042C57.7129 7.43572 57.4729 7.13637 56.8203 7.06893C56.0708 6.99202 55.2669 7.03698 54.5599 7.01924C53.7951 6.99912 51.8669 6.96599 51.1989 6.7329C50.0675 6.33772 48.8534 6.34837 47.6156 6.1981C47.5932 6.19574 47.5707 6.20047 47.5482 6.1981C47.4678 6.09161 47.2952 6.12829 47.1545 6.13303C47.1297 6.13303 47.1049 6.13066 47.0801 6.13184C46.7006 6.08333 46.3175 6.00169 45.9416 5.9307C45.9298 5.92833 45.8423 5.88219 45.7406 5.86326C45.6295 5.84314 45.5184 5.81711 45.4061 5.79582C45.3954 5.79345 45.3032 5.74731 45.2051 5.72837C45.1838 5.72482 45.1602 5.73311 45.1377 5.72837C45.062 5.6491 44.9237 5.62662 44.8185 5.61242C43.9862 5.49292 43.6008 5.17582 42.7224 5.16281C42.6267 5.16163 42.5167 5.14743 42.3961 5.12495C42.2271 5.08472 42.058 5.04331 41.889 5.00189C41.1572 4.79247 40.2622 4.4387 39.6841 4.33102C38.6958 4.14526 37.1542 4.08492 36.2167 3.70275C36.0677 3.64241 36.037 3.48741 35.8632 3.4531C35.4293 3.36909 34.9754 3.63176 34.564 3.41287C34.4032 3.32768 34.3263 3.08986 34.1218 3.05081C33.6761 2.96562 33.0247 3.13363 32.5199 3.04608C32.1972 2.98929 31.5446 2.7136 31.21 2.58108C30.9582 2.48051 30.7726 2.18472 30.4085 2.348C30.1236 2.47578 30.2418 2.78578 30.198 3.00822C30.1023 3.49688 30.0278 4.07664 29.9226 4.54045C29.8883 4.69072 29.6637 5.1001 29.6755 5.15216C29.6826 5.18292 30.0361 5.47044 30.1389 5.59467C30.0976 5.88456 30.2536 6.16142 30.3269 6.41936C30.3293 6.43356 30.3328 6.44894 30.3399 6.4655C30.574 7.42271 30.4995 8.27224 30.5409 9.21169C30.5787 10.0612 30.7218 10.7984 30.7419 11.6893C30.7785 13.2831 30.7265 14.8946 30.7395 16.4753C30.7525 18.0111 30.6946 19.5575 30.9428 21.0661C30.9499 21.1087 30.9346 21.1584 30.9428 21.1998C30.9617 21.2992 30.9901 21.3796 31.0102 21.4672C31.346 22.9627 31.7988 24.9008 32.2646 26.3408C32.6275 27.4624 33.1985 28.5415 33.5567 29.6691C33.9563 30.9233 34.0698 32.2129 34.5261 33.4553C34.6881 33.8954 34.8394 34.0824 34.96 34.5947C35.1078 35.2194 35.2343 35.8797 35.3537 36.5115C35.8183 38.982 36.2805 41.4288 37.0041 43.8343C37.9108 46.8467 38.6591 49.9194 39.4406 52.9839C39.56 53.4524 39.7338 54.1257 39.7716 54.5942C39.8 54.9539 39.6889 55.3053 39.7161 55.5822C39.7444 55.8768 39.9241 56.3276 39.9738 56.6695C40.3095 58.9957 40.5058 61.3443 40.9006 63.6456C41.1288 64.9779 41.3038 66.5894 41.6194 67.8826C41.6655 68.0708 41.8358 68.3169 41.8429 68.3914C41.8582 68.5358 41.6502 68.6955 41.6584 68.9108C41.6667 69.1321 41.9209 69.4291 41.9091 69.5758C41.8913 69.797 41.474 70.2112 41.4504 70.5247C41.4314 70.7838 41.571 71.0524 41.5911 71.3257C41.6632 72.3314 41.3629 73.175 41.5178 74.1464C41.5367 74.2683 41.5071 74.3973 41.5213 74.5085C41.3251 74.6931 41.3499 75.0007 41.3203 75.2456C41.299 75.4302 41.2269 75.3557 41.3203 75.6479C41.3782 75.9804 41.182 76.2525 41.1253 76.5578C41.0791 76.8051 41.117 77.1518 41.0366 77.4061C40.6145 78.7479 40.4455 79.5371 40.2327 80.9545C40.0412 82.2253 39.6168 83.3481 39.4371 84.7123C39.346 85.4033 39.1545 86.0411 39.2455 86.764C39.1722 87.3367 38.9512 88.0833 38.9145 88.6157C38.8991 88.8464 38.9985 89.0251 38.9736 89.2688C38.9476 89.5173 38.7395 89.8415 38.6733 90.1101C38.2454 91.8505 38.1957 93.6443 37.8068 95.4049C37.7465 95.6794 37.5632 95.9929 37.5207 96.2579C37.4616 96.6235 37.5006 97.0424 37.4202 97.4305C37.3067 97.9759 37.0017 98.829 36.835 99.423C36.809 99.5153 36.7924 99.604 36.7676 99.6904C36.7487 99.7566 36.7203 99.8229 36.7002 99.8915C36.6837 99.9471 36.6553 100.017 36.6328 100.093C36.5879 100.248 36.543 100.409 36.4992 100.561C36.4709 100.661 36.4555 100.751 36.4319 100.829C36.4047 100.922 36.3893 101.02 36.3645 101.096C36.1588 101.757 35.7994 102.97 35.3631 103.477C35.2556 103.602 35.1019 103.636 35.0097 103.794C34.8784 104.018 34.8642 104.44 34.7567 104.713C34.6916 104.881 34.5179 105.134 34.4221 105.315C34.3677 105.418 34.285 105.531 34.2211 105.65C34.1135 105.851 33.9941 106.046 33.8865 106.252C33.8865 106.246 33.8877 106.245 33.8925 106.249C33.8901 106.25 33.8889 106.251 33.8865 106.252C33.8227 106.375 33.7979 106.578 33.753 106.655C33.7459 106.666 33.6076 106.79 33.552 106.856C33.4196 107.017 33.1618 107.172 33.0566 107.398C33.0259 107.464 32.8699 107.962 32.8876 107.987C32.8959 107.998 33.046 108.039 33.1205 108.124C33.4196 108.459 33.6797 108.8 33.6856 109.266C33.3593 109.254 33.2978 108.92 33.1524 108.762C32.9869 108.583 32.6287 108.515 32.514 108.196L31.9465 108.965C32.0577 109.123 32.2787 109.129 32.4135 109.2C33.0685 109.545 33.4811 109.679 34.1537 109.937C35.1184 110.306 36.1328 110.811 37.166 110.808C37.2771 110.808 37.3895 110.808 37.5006 110.808C37.6696 110.844 37.8221 110.847 37.9687 110.875L38.035 110.892C38.0905 110.907 38.1591 110.928 38.2371 110.943C38.2785 110.95 38.3293 110.935 38.3707 110.943L38.431 110.958C38.4866 110.973 38.561 110.997 38.6379 111.01C38.8341 111.043 39.0446 111.048 39.2408 111.077L39.2857 111.088C39.3401 111.103 39.4241 111.132 39.5092 111.144C39.573 111.153 39.6463 111.134 39.7101 111.144C39.7492 111.15 39.8603 111.195 39.9785 111.211C40.0223 111.217 40.0695 111.205 40.1121 111.211C40.1476 111.216 40.2611 111.262 40.3805 111.279C40.488 111.293 40.6074 111.264 40.715 111.279C40.78 111.382 40.9408 111.348 41.0638 111.345C41.0815 111.345 41.0992 111.346 41.117 111.345C41.318 111.37 41.5201 111.387 41.7199 111.412L41.7412 111.418C41.7873 111.431 41.8901 111.468 41.9871 111.48C42.2543 111.513 42.5203 111.536 42.791 111.547C42.8643 111.662 43.0664 111.609 43.1929 111.615C43.3265 111.619 43.4613 111.606 43.5949 111.615C43.6055 111.615 43.6528 111.671 43.7959 111.682C43.9058 111.689 44.0193 111.68 44.1304 111.682C44.2037 111.794 44.4059 111.747 44.5324 111.749C44.6211 111.749 44.7109 111.749 44.8008 111.749C44.8835 111.856 45.133 111.828 45.2689 111.817C45.3127 111.813 45.3588 111.819 45.4025 111.817C46.009 111.895 46.6344 111.975 47.2444 112.017C49.3972 112.165 51.589 112.222 53.704 112.285C54.5576 112.311 55.397 112.386 56.2482 112.419C56.2931 112.42 56.338 112.419 56.3817 112.419C56.455 112.532 56.6572 112.484 56.7837 112.487C57.006 112.489 57.2306 112.487 57.4528 112.487C57.7756 112.611 58.2284 112.553 58.5913 112.554C58.9696 112.554 59.3515 112.554 59.7298 112.554C60.0797 112.669 60.5609 112.633 60.9345 112.621C61.0018 112.619 61.068 112.624 61.1354 112.621C61.2832 112.617 61.4523 112.555 61.47 112.554C61.8921 112.542 62.32 112.558 62.7421 112.554C62.9099 112.553 63.1665 112.606 63.2776 112.487C63.3887 112.487 63.501 112.488 63.6122 112.487C63.7588 112.485 63.9893 112.536 64.0803 112.419C64.1465 112.419 64.2151 112.423 64.2813 112.419C64.4137 112.412 64.5497 112.422 64.6833 112.419C65.9364 112.4 67.2049 112.521 68.4628 112.556C72.0201 112.656 75.5939 112.624 79.1441 112.62C79.5945 112.743 80.1431 112.687 80.6172 112.688C81.0179 112.688 81.4211 112.688 81.8218 112.688C82.3905 112.688 82.9615 112.696 83.5301 112.688C83.6436 112.687 83.8281 112.73 83.8978 112.619C84.2761 112.619 84.658 112.619 85.0363 112.619C85.3768 112.619 85.8083 112.676 86.1074 112.552C86.3083 112.552 86.5093 112.553 86.7103 112.552C86.9207 112.55 87.2257 112.607 87.3794 112.484C87.513 112.484 87.6478 112.485 87.7814 112.484C87.928 112.482 88.1585 112.534 88.2495 112.417C88.4943 112.414 88.7425 112.429 88.9861 112.417C89.1327 112.41 89.1764 112.351 89.187 112.349C89.3194 112.341 89.4554 112.353 89.589 112.349C89.7155 112.346 89.9176 112.395 89.9909 112.282C90.0583 112.282 90.1245 112.282 90.1919 112.282C90.3385 112.281 90.569 112.332 90.6601 112.214C90.705 112.214 90.7499 112.216 90.7937 112.214C92.4748 112.165 94.1452 111.988 95.8145 111.812C95.9458 111.798 96.0049 111.746 96.0155 111.745C96.1396 111.731 96.2874 111.748 96.4175 111.745C96.525 111.742 96.6953 111.785 96.752 111.677C96.8632 111.675 96.9767 111.686 97.0866 111.677C97.2261 111.667 97.2769 111.611 97.2876 111.61C97.4188 111.598 97.5583 111.623 97.6895 111.61C97.8219 111.597 97.8799 111.544 97.8905 111.542C98.0005 111.531 98.1163 111.554 98.2251 111.542C98.3303 111.532 98.4402 111.49 98.4804 111.479L98.4934 111.475C98.6022 111.463 98.7192 111.487 98.828 111.475C98.932 111.463 99.042 111.423 99.0822 111.411L99.0952 111.408C99.2039 111.396 99.321 111.419 99.4297 111.408C99.5326 111.396 99.6355 111.358 99.6792 111.345L99.6969 111.34C99.8057 111.327 99.9227 111.353 100.031 111.34C100.159 111.326 100.222 111.274 100.232 111.273C100.363 111.258 100.504 111.287 100.634 111.273C100.769 111.257 100.911 111.212 100.969 111.205C101.056 111.196 101.15 111.216 101.237 111.205C101.339 111.193 101.443 111.156 101.487 111.142L101.505 111.138C101.57 111.131 101.64 111.145 101.706 111.138C101.806 111.126 101.905 111.089 101.951 111.076L101.973 111.07C102.194 111.043 102.421 111.027 102.642 111.003C102.752 111.003 102.862 111 102.972 110.998C103.293 111.01 103.631 111.049 103.914 110.937C104.023 110.932 104.146 110.95 104.248 110.937C104.373 110.92 104.395 110.885 104.449 110.869C104.919 110.741 105.134 110.533 105.521 110.333C105.627 110.278 105.69 110.216 105.721 110.199C106.159 109.968 106.782 109.768 107.262 109.597C107.521 109.505 109.235 109.049 109.271 108.893L108.769 108.192C108.651 108.497 108.346 108.558 108.171 108.731C108.093 108.807 107.859 109.372 107.697 109.13C107.472 108.794 108.405 108.005 108.402 107.897C108.38 107.269 107.857 107.013 107.567 106.58C107.482 106.452 107.464 106.308 107.397 106.181C107.31 106.02 107.209 105.858 107.128 105.713C106.94 105.369 106.64 104.9 106.511 104.554C106.34 104.094 106.491 104.073 106.123 103.636C106.053 103.552 105.966 103.487 105.922 103.435C105.665 103.123 105.329 102.303 105.186 101.895C105.071 101.568 105.015 101.22 104.918 100.89L104.85 100.623C104.757 100.288 104.626 99.9649 104.533 99.6336C104.238 98.5711 103.943 97.4802 103.778 96.4035C103.712 95.9752 103.592 95.7054 103.501 95.3066C103.101 93.5342 103.026 91.7559 102.608 89.9716C102.556 89.7527 102.405 89.5587 102.378 89.3315C102.345 89.0618 102.44 88.8807 102.434 88.6737C102.42 88.1744 102.103 87.2645 102.045 86.7179C101.976 86.073 102.003 85.5004 101.904 84.8165C101.904 84.7964 101.904 84.7762 101.904 84.7561C101.909 84.6331 101.938 84.4793 101.838 84.4142C101.831 84.3728 101.845 84.3219 101.838 84.2805C101.834 84.2154 101.827 84.1503 101.819 84.0864C101.694 82.9612 101.24 81.8668 101.053 80.7451C100.995 80.3973 101.019 80.0222 100.949 79.6436C100.845 79.0733 100.67 78.484 100.55 77.8995C100.508 77.6901 100.284 77.515 100.244 77.3351C100.102 76.6998 100.066 75.9094 100.029 75.274C100.01 74.9487 99.7974 74.5688 99.7832 74.3251C99.769 74.0885 99.9736 73.898 99.9641 73.7371C99.9582 73.6247 99.8459 73.5182 99.8317 73.3928C99.7489 72.6592 99.7655 71.8901 99.7608 71.153C99.7832 70.966 99.9074 70.6264 99.8825 70.4632C99.8577 70.2963 99.477 69.8313 99.4357 69.6302C99.3872 69.3948 99.6272 69.1995 99.6331 68.9096C99.639 68.6529 99.477 68.5038 99.4889 68.3772C99.5007 68.2447 99.6508 68.195 99.6804 68.0932C99.8601 67.4922 99.8624 66.5515 99.9795 65.915C100.143 65.0311 100.426 64.139 100.563 63.2504C100.582 63.1274 100.546 62.9724 100.563 62.8481C100.588 62.6778 100.606 62.4896 100.631 62.3122C100.647 62.1938 100.683 62.0838 100.698 61.9773C100.71 61.8933 100.748 61.7738 100.766 61.6425C100.95 60.2806 101.12 58.8821 101.294 57.5167C101.48 56.0637 101.5 54.4522 101.856 53.056C102.011 52.4467 102.261 51.8291 102.42 51.2091C102.875 49.4284 103.115 47.4548 103.693 45.7179C103.893 45.118 104.352 44.4436 104.315 43.7609C104.47 43.5988 104.452 43.3349 104.516 43.1586C104.799 42.3766 104.782 42.0405 104.947 41.2797C105.185 40.1877 105.557 39.1157 105.766 38.0141C106.108 36.218 106.209 35.094 106.843 33.3322C107.254 32.194 107.366 30.9564 107.728 29.7969C108.133 28.4954 108.802 27.2589 109.168 25.9468C109.604 24.3826 110.164 22.3688 110.407 20.7904C110.755 18.5163 110.559 15.8376 110.54 13.4901C110.676 13.0831 110.591 12.5838 110.608 12.1507C110.617 11.9106 110.585 11.6467 110.608 11.4136C110.642 11.0551 110.675 10.7321 110.705 10.4138C110.716 10.4138 110.728 10.4138 110.741 10.4091C110.764 10.344 110.752 10.2813 110.722 10.2221C110.759 9.81749 110.788 9.41047 110.809 8.93601C110.831 8.40357 110.883 8.04625 111.01 7.52919C111.044 7.39076 111.102 7.21565 111.143 7.06065C111.162 6.99084 111.127 6.90802 111.177 6.7968C111.26 6.61813 111.608 6.51993 111.612 6.3602C111.616 6.2478 111.465 6.07742 111.429 5.93662L111.439 5.9449Z" fill="#B7B7B7"/>
</mask>
<g mask="url(#mask0_57_769)">
<path d="M33.4482 79.0621H104.926L105.647 94.5871H32.6218L33.4482 79.0621Z" fill="white"/>
</g>
<path d="M58.8313 88.2371V85.3994H59.3304L60.8197 87.3918H60.8438V85.3994H61.3872V88.2371H60.8519L59.3989 86.2769H59.3747V88.2371H58.8313ZM63.1015 88.2773C62.8815 88.2773 62.6896 88.233 62.5259 88.1445C62.3649 88.0559 62.2401 87.9325 62.1516 87.7742C62.0657 87.6159 62.0228 87.4321 62.0228 87.2228C62.0228 87.0108 62.0657 86.827 62.1516 86.6713C62.2401 86.513 62.3649 86.3909 62.5259 86.3051C62.6896 86.2165 62.8815 86.1722 63.1015 86.1722C63.3242 86.1722 63.5147 86.2165 63.673 86.3051C63.834 86.3909 63.9575 86.513 64.0433 86.6713C64.1319 86.827 64.1762 87.0108 64.1762 87.2228C64.1762 87.4321 64.1319 87.6159 64.0433 87.7742C63.9575 87.9325 63.834 88.0559 63.673 88.1445C63.5147 88.233 63.3242 88.2773 63.1015 88.2773ZM63.1015 87.8104C63.2705 87.8104 63.402 87.7567 63.4959 87.6494C63.5899 87.5421 63.6368 87.3985 63.6368 87.2187C63.6368 87.039 63.5899 86.8981 63.4959 86.7961C63.4047 86.6915 63.2732 86.6391 63.1015 86.6391C62.9298 86.6391 62.7969 86.6915 62.703 86.7961C62.6091 86.8981 62.5621 87.039 62.5621 87.2187C62.5621 87.3985 62.6091 87.5421 62.703 87.6494C62.7996 87.7567 62.9324 87.8104 63.1015 87.8104ZM66.0441 88.2371V85.3994H67.3522C67.5588 85.3994 67.7359 85.4357 67.8835 85.5081C68.0337 85.5779 68.1491 85.6799 68.2296 85.814C68.3101 85.9482 68.3504 86.1078 68.3504 86.293C68.3504 86.4755 68.3088 86.6351 68.2256 86.772C68.1451 86.9088 68.0297 87.0148 67.8795 87.0899C67.7319 87.1651 67.5561 87.2026 67.3522 87.2026H66.6035V88.2371H66.0441ZM66.6035 86.7398H67.2556C67.43 86.7398 67.5628 86.7049 67.6541 86.6351C67.7453 86.5654 67.7909 86.454 67.7909 86.301C67.7909 86.1481 67.7453 86.0367 67.6541 85.967C67.5655 85.8972 67.4327 85.8623 67.2556 85.8623H66.6035V86.7398ZM68.8804 88.2371V86.2125H69.3553V86.7116H69.3835C69.4318 86.564 69.5123 86.4433 69.625 86.3493C69.7404 86.2527 69.8813 86.1991 70.0476 86.1883L70.3052 86.1722L70.3576 86.6915L69.9591 86.7237C69.7927 86.7371 69.6639 86.7934 69.5727 86.8927C69.4841 86.9893 69.4399 87.106 69.4399 87.2429V88.2371H68.8804ZM71.8619 88.2773C71.6016 88.2773 71.3816 88.2357 71.2018 88.1525C71.022 88.0667 70.8865 87.9446 70.7953 87.7863C70.704 87.6279 70.6584 87.4401 70.6584 87.2228C70.6584 87.0242 70.7 86.8458 70.7832 86.6874C70.8691 86.5291 70.9925 86.4044 71.1535 86.3131C71.3145 86.2192 71.5077 86.1722 71.7331 86.1722C71.9343 86.1722 72.1101 86.2152 72.2604 86.301C72.4106 86.3842 72.526 86.505 72.6065 86.6633C72.6897 86.8189 72.7313 87.0081 72.7313 87.2308V87.3999H71.0931V87.0497H72.3248L72.2644 87.1262C72.2644 86.9356 72.2174 86.7961 72.1235 86.7076C72.0323 86.619 71.9035 86.5747 71.7371 86.5747C71.6298 86.5747 71.5345 86.5962 71.4513 86.6391C71.3682 86.6821 71.3024 86.7465 71.2541 86.8323C71.2058 86.9155 71.1817 87.0215 71.1817 87.1503V87.2147C71.1817 87.3623 71.2085 87.4817 71.2622 87.5729C71.3158 87.6642 71.395 87.7313 71.4996 87.7742C71.6043 87.8171 71.7331 87.8386 71.886 87.8386C71.9907 87.8386 72.098 87.8265 72.208 87.8024C72.3207 87.7782 72.4227 87.7339 72.5139 87.6695L72.6709 88.0559C72.5582 88.1364 72.4294 88.1941 72.2845 88.229C72.1396 88.2612 71.9987 88.2773 71.8619 88.2773ZM73.7823 88.2371L72.9531 86.2125H73.5448L74.064 87.6615H74.0922L74.6114 86.2125H75.187L74.3538 88.2371H73.7823ZM75.5024 85.818V85.2545H76.1464V85.818H75.5024ZM75.5507 88.2371V86.2125H76.1102V88.2371H75.5507ZM77.8797 88.2773C77.6194 88.2773 77.3994 88.2357 77.2196 88.1525C77.0398 88.0667 76.9043 87.9446 76.8131 87.7863C76.7219 87.6279 76.6762 87.4401 76.6762 87.2228C76.6762 87.0242 76.7178 86.8458 76.801 86.6874C76.8869 86.5291 77.0103 86.4044 77.1713 86.3131C77.3323 86.2192 77.5255 86.1722 77.7509 86.1722C77.9522 86.1722 78.1279 86.2152 78.2782 86.301C78.4285 86.3842 78.5438 86.505 78.6243 86.6633C78.7075 86.8189 78.7491 87.0081 78.7491 87.2308V87.3999H77.1109V87.0497H78.3426L78.2822 87.1262C78.2822 86.9356 78.2353 86.7961 78.1413 86.7076C78.0501 86.619 77.9213 86.5747 77.7549 86.5747C77.6476 86.5747 77.5524 86.5962 77.4692 86.6391C77.386 86.6821 77.3202 86.7465 77.2719 86.8323C77.2236 86.9155 77.1995 87.0215 77.1995 87.1503V87.2147C77.1995 87.3623 77.2263 87.4817 77.28 87.5729C77.3337 87.6642 77.4128 87.7313 77.5175 87.7742C77.6221 87.8171 77.7509 87.8386 77.9039 87.8386C78.0085 87.8386 78.1158 87.8265 78.2259 87.8024C78.3386 87.7782 78.4405 87.7339 78.5318 87.6695L78.6887 88.0559C78.576 88.1364 78.4472 88.1941 78.3023 88.229C78.1574 88.2612 78.0166 88.2773 77.8797 88.2773ZM79.6955 88.2371L79.0112 86.2125H79.5586L79.9692 87.6132H79.9933L80.4964 86.2125H80.9191L81.4181 87.6132H81.4423L81.8569 86.2125H82.4002L81.716 88.2371H81.2411L80.7178 86.8162H80.6937L80.1664 88.2371H79.6955Z" fill="black"/>
<defs>
<radialGradient id="paint0_radial_57_769" cx="0" cy="0" r="1" gradientUnits="userSpaceOnUse" gradientTransform="translate(70.8744 110.815) scale(70.7768 8.71524)">
<stop stop-color="#242424"/>
<stop offset="0.05" stop-color="#343434"/>
<stop offset="0.24" stop-color="#717171"/>
<stop offset="0.43" stop-color="#A4A4A4"/>
<stop offset="0.6" stop-color="#CBCBCB"/>
<stop offset="0.76" stop-color="#E7E7E7"/>
<stop offset="0.9" stop-color="#F8F8F8"/>
<stop offset="1" stop-color="white"/>
</radialGradient>
</defs>
</svg>
