<svg width="158" height="40" viewBox="0 0 158 40" fill="none" xmlns="http://www.w3.org/2000/svg">
<path fill-rule="evenodd" clip-rule="evenodd" d="M18.6462 13.1012C20.9955 13.1012 22.9004 15.0053 22.9004 17.3554C22.9004 19.7054 20.9955 21.6095 18.6462 21.6095C16.297 21.6095 14.3921 19.7054 14.3921 17.3554C14.3921 15.0053 16.297 13.1012 18.6462 13.1012Z" fill="#FF4A42"/>
<path d="M2.09046 13.1134C2.55455 13.1307 3.03509 13.1653 3.52387 13.2204C6.20965 7.36089 12.0659 3.5371 18.6347 3.5371C25.2035 3.5371 31.0672 7.36582 33.7513 13.2319C34.5009 13.1447 35.2209 13.111 35.8907 13.0978C33.0404 6.12332 26.265 1.52276 18.6347 1.52276C11.0044 1.52276 4.2307 6.1225 1.37952 13.0945H2.09046L2.08964 13.1134H2.09046Z" fill="#FF4A42"/>
<path d="M33.5452 13.5982L33.4424 13.3736C30.8035 7.60456 24.9909 3.87705 18.6352 3.87705C12.2795 3.87705 6.47508 7.59963 3.83373 13.3621L3.73087 13.5859L3.48649 13.5579C3.02651 13.5061 2.55255 13.4707 2.07859 13.4534L1.73217 13.441V13.4353H0.874756L1.06648 12.9671C3.99254 5.80828 10.8889 1.18303 18.6352 1.18303C26.3815 1.18303 33.2795 5.80992 36.2055 12.9696L36.3931 13.4287L35.8978 13.4386C35.1004 13.4542 34.4306 13.4954 33.7913 13.5702L33.5461 13.599L33.5452 13.5982ZM18.6352 3.19737C25.1736 3.19737 31.1606 6.98496 33.9567 12.8675C34.4043 12.8214 34.8692 12.7902 35.3835 12.7721C32.4607 6.12837 25.9396 1.8627 18.6352 1.8627C11.3307 1.8627 4.82033 6.12096 1.89427 12.7556H2.45134L2.44969 12.7894C2.74181 12.805 3.0331 12.828 3.31945 12.856C6.11714 6.98002 12.1017 3.19737 18.6352 3.19737Z" fill="#FF4A42"/>
<path d="M18.3832 7.24081C14.826 7.305 11.5066 8.74992 9.03643 11.3106C8.10743 12.2734 7.34053 13.3505 6.7489 14.5091C7.39566 14.7181 8.02761 14.9641 8.64228 15.2422C9.13106 14.328 9.74655 13.4747 10.4863 12.7087C12.5829 10.5355 15.4004 9.30864 18.4202 9.25433C18.4902 9.25351 18.5593 9.25269 18.6284 9.25269C21.5709 9.25269 24.3489 10.3734 26.4727 12.4215C27.3441 13.2624 28.0608 14.2211 28.6137 15.2603C29.2267 14.9814 29.8579 14.7353 30.503 14.5255C29.8389 13.2197 28.956 12.0191 27.8707 10.9724C25.31 8.50225 21.9387 7.17581 18.384 7.24081H18.3832Z" fill="#FF4A42"/>
<path d="M28.4617 15.7023L28.312 15.4201C27.7689 14.3981 27.0703 13.4716 26.2351 12.666C24.1319 10.6368 21.3515 9.54986 18.4238 9.59429C15.4961 9.64695 12.7626 10.8368 10.7293 12.9449C10.0233 13.6773 9.42095 14.5042 8.94041 15.4028L8.79065 15.6834L8.50101 15.5526C7.88963 15.2761 7.26426 15.0342 6.64301 14.8334L6.26367 14.7108L6.44552 14.3553C7.0569 13.1581 7.84684 12.0546 8.79147 11.0754C11.325 8.44971 14.7292 6.96775 18.3769 6.90192C22.0172 6.83609 25.4781 8.1938 28.1063 10.7282C29.2072 11.7905 30.1149 13.0157 30.8052 14.3718L30.9854 14.7264L30.6077 14.8498C29.9832 15.0539 29.3595 15.2967 28.7539 15.5715L28.4626 15.704L28.4617 15.7023ZM18.627 8.91297C21.6551 8.91297 24.5252 10.0724 26.7074 12.1772C27.5171 12.9589 28.2067 13.8476 28.7596 14.8235C29.1727 14.6441 29.5923 14.4796 30.0145 14.3314C29.3842 13.1811 28.5843 12.1344 27.6331 11.217C25.1366 8.80847 21.8477 7.51165 18.3884 7.58077C14.9225 7.64249 11.6879 9.05121 9.28025 11.5461C8.47467 12.3813 7.78842 13.3103 7.23628 14.3142C7.65758 14.4615 8.07806 14.6252 8.49442 14.8054C8.97744 13.9579 9.56331 13.1745 10.2405 12.4726C12.4005 10.2336 15.3027 8.97057 18.4131 8.91462C18.4855 8.91379 18.5563 8.91297 18.6278 8.91297H18.627Z" fill="#FF4A42"/>
<path d="M37.2925 20.1695C37.2925 19.8461 37.2834 19.5162 37.2669 19.1887L37.2176 18.2317L36.1981 18.2342C36.1158 18.2342 36.0335 18.2342 35.9512 18.2358C34.7317 18.258 33.3428 18.3387 31.9077 18.7032V18.6999L31.8468 18.7196C31.4214 18.8299 30.9927 18.964 30.5632 19.1303C25.0023 20.9208 20.5408 25.337 18.6458 30.8312C16.7533 25.3378 12.2918 20.9208 6.72681 19.1278C5.142 18.5016 3.54073 18.3066 2.09087 18.2531V18.235L1.03268 18.2342H0.0748795L0.0255084 19.1887C0.00822852 19.5162 0 19.8461 0 20.1695C0 30.0799 7.78253 38.2163 17.5572 38.7832L17.5555 38.8153H17.716V38.817H18.4961L18.6458 38.8161H18.7964L19.5773 38.817V38.8153H19.732L19.7303 38.7832C29.5066 38.2188 37.2916 30.0816 37.2916 20.1695H37.2925ZM16.8076 33.2594C16.7697 33.2545 16.731 33.2504 16.6932 33.2446C16.2678 33.1821 15.8489 33.0998 15.4383 32.9986C15.4235 32.9953 15.4095 32.9904 15.3947 32.9871C15.2071 32.9402 15.022 32.89 14.8377 32.8348C14.7932 32.8217 14.7504 32.8069 14.706 32.7929C14.553 32.7451 14.3999 32.6966 14.2493 32.6439C14.1942 32.625 14.1407 32.6036 14.0864 32.5839C13.9473 32.5337 13.8091 32.4818 13.6733 32.4267C13.6149 32.4028 13.5565 32.3782 13.4981 32.3535C13.3672 32.2992 13.238 32.2432 13.1097 32.184C13.0496 32.1568 12.9904 32.128 12.9311 32.1C12.806 32.0408 12.6818 31.9799 12.5592 31.9165C12.4999 31.8861 12.4415 31.8548 12.3831 31.8236C12.2613 31.7585 12.1412 31.6919 12.0219 31.6236C11.9643 31.5907 11.9075 31.5578 11.8507 31.524C11.7322 31.4533 11.6146 31.3809 11.4985 31.306C11.4442 31.2714 11.3899 31.2369 11.3364 31.2015C11.2188 31.1241 11.1036 31.0443 10.9884 30.9637C10.9382 30.9283 10.888 30.8937 10.8386 30.8575C10.7209 30.772 10.6049 30.6839 10.4905 30.5942C10.4469 30.5597 10.4025 30.5267 10.3589 30.4922C10.2371 30.3951 10.1186 30.2955 10.0009 30.1943C9.96638 30.1647 9.931 30.1359 9.89726 30.1063C9.76478 29.9902 9.63477 29.8709 9.50723 29.7491C9.48995 29.7327 9.47184 29.7171 9.45457 29.6998C9.01434 29.2768 8.60374 28.8243 8.22605 28.3445C8.20218 28.3141 8.17914 28.282 8.15528 28.2516C8.05736 28.1248 7.96027 27.9965 7.86646 27.8656C7.8319 27.8179 7.79981 27.7685 7.76607 27.72C7.68543 27.6048 7.60562 27.4888 7.52909 27.3703C7.49124 27.3119 7.45504 27.2526 7.41801 27.1942C7.34889 27.0839 7.27977 26.9728 7.21312 26.8601C7.17444 26.7943 7.13741 26.7276 7.09956 26.6618C7.03867 26.554 6.9786 26.4454 6.92018 26.3351C6.88233 26.2635 6.8453 26.1911 6.8091 26.1187C6.75479 26.0118 6.70213 25.904 6.65111 25.7962C6.6149 25.7196 6.57952 25.6423 6.54496 25.5649C6.49724 25.4588 6.45116 25.3518 6.40672 25.244C6.37299 25.1626 6.33925 25.0819 6.30716 24.9996C6.26519 24.8935 6.2257 24.7865 6.1862 24.6787C6.15493 24.5932 6.12448 24.5084 6.09486 24.422C6.05866 24.3167 6.02574 24.2097 5.99201 24.1027C5.96403 24.0131 5.93523 23.9242 5.90972 23.8337C5.87927 23.7283 5.85212 23.623 5.82414 23.5169C5.82003 23.5012 5.81591 23.4856 5.8118 23.47C6.47996 23.7958 7.39085 24.1933 8.2425 24.413C8.24662 24.4237 8.25156 24.4344 8.25567 24.445C8.29681 24.5438 8.33878 24.6425 8.38239 24.7396C8.4079 24.7956 8.43258 24.8515 8.45891 24.9067C8.50582 25.0062 8.55437 25.1042 8.60374 25.2021C8.62842 25.2514 8.65311 25.3016 8.67862 25.351C8.74938 25.486 8.82261 25.6193 8.89832 25.7509C8.91477 25.7797 8.93205 25.8077 8.94851 25.8357C9.01845 25.9542 9.09004 26.0718 9.1641 26.187C9.19866 26.2405 9.23404 26.2932 9.26942 26.3458C9.32373 26.4281 9.37886 26.5096 9.43564 26.5902C9.47596 26.6478 9.5171 26.7046 9.55907 26.7614C9.61337 26.8363 9.66851 26.9095 9.72528 26.9827C9.76889 27.0395 9.81333 27.0963 9.85776 27.1522C9.91618 27.2255 9.97625 27.2971 10.0363 27.3686C10.0808 27.4213 10.1244 27.4748 10.1696 27.5266C10.2453 27.6138 10.3235 27.6986 10.4017 27.7825C10.4609 27.8467 10.521 27.9101 10.5819 27.9726C10.66 28.0533 10.7382 28.1331 10.8189 28.2112C10.8715 28.2623 10.9258 28.3116 10.9793 28.361C11.0435 28.4211 11.1085 28.4811 11.1743 28.5396C11.2319 28.5906 11.2912 28.6416 11.3496 28.691C11.4138 28.7461 11.4788 28.8004 11.5446 28.8539C11.6055 28.9033 11.6656 28.9518 11.7273 29.0004C11.7948 29.053 11.8639 29.104 11.933 29.1559C11.9939 29.2011 12.0548 29.2472 12.1173 29.2916C12.1988 29.3492 12.2811 29.4052 12.3642 29.4603C12.4563 29.522 12.5493 29.5829 12.6431 29.6422C12.7303 29.6973 12.8176 29.7524 12.9064 29.8051C12.9723 29.8446 13.0397 29.8816 13.1072 29.9195C13.1821 29.9614 13.257 30.0034 13.3327 30.0445C13.4034 30.0824 13.4742 30.1186 13.5458 30.1548C13.6207 30.1927 13.6964 30.2297 13.7721 30.2667C13.8445 30.3013 13.9169 30.3358 13.9901 30.3688C14.0683 30.4041 14.1481 30.4379 14.2271 30.4716C14.2987 30.5021 14.3703 30.5333 14.4435 30.5629C14.5365 30.6 14.6311 30.6354 14.7258 30.6699C14.8261 30.7069 14.9274 30.7432 15.0294 30.7777C15.1355 30.8139 15.2425 30.8493 15.3503 30.8822C15.4227 30.9044 15.4968 30.9242 15.57 30.9447C15.6572 30.9694 15.7453 30.9941 15.8333 31.0163C15.9107 31.0361 15.988 31.0542 16.0654 31.0723C16.1526 31.0929 16.2398 31.1118 16.3278 31.1307C16.406 31.1472 16.4842 31.1628 16.5624 31.1776C16.5895 31.1826 16.6167 31.1867 16.6438 31.1916C16.8141 31.6376 17.0577 32.3675 17.2478 33.3129C17.1013 33.2973 16.9565 33.2775 16.8117 33.2578L16.8076 33.2594ZM31.4675 23.5177C31.4395 23.6238 31.4124 23.73 31.3819 23.8345C31.3556 23.925 31.3276 24.0139 31.2996 24.1036C31.2659 24.2105 31.233 24.3167 31.1968 24.4228C31.1672 24.5092 31.1367 24.594 31.1054 24.6796C31.0668 24.7874 31.0264 24.8943 30.9845 25.0005C30.9524 25.0828 30.9186 25.1634 30.8849 25.2449C30.8397 25.3527 30.7936 25.4596 30.7467 25.5658C30.7121 25.6431 30.6767 25.7205 30.6405 25.797C30.5895 25.9056 30.5368 26.0134 30.4825 26.1195C30.4463 26.192 30.4093 26.2644 30.3715 26.336C30.313 26.4462 30.253 26.5548 30.1921 26.6626C30.1542 26.7293 30.1172 26.7951 30.0785 26.8609C30.0119 26.9737 29.9436 27.0848 29.8736 27.195C29.8366 27.2534 29.8004 27.3135 29.7625 27.3711C29.6852 27.4896 29.6062 27.6056 29.5256 27.7208C29.4918 27.7694 29.4589 27.8179 29.4252 27.8665C29.3314 27.9973 29.2343 28.1248 29.1364 28.2524C29.1125 28.2828 29.0895 28.3149 29.0656 28.3454C28.6879 28.8251 28.2773 29.2777 27.8371 29.7006C27.8198 29.7171 27.8017 29.7327 27.7844 29.75C27.6569 29.8718 27.5269 29.9911 27.3944 30.1071C27.3606 30.1367 27.3253 30.1655 27.2907 30.1951C27.173 30.2963 27.0537 30.3959 26.9328 30.493C26.8891 30.5276 26.8447 30.5613 26.8011 30.595C26.6867 30.6847 26.5707 30.7728 26.453 30.8584C26.4037 30.8946 26.3535 30.9291 26.3033 30.9645C26.1889 31.0451 26.0729 31.125 25.9552 31.2023C25.9017 31.2377 25.8474 31.2722 25.7931 31.3068C25.6771 31.3809 25.5594 31.4541 25.4409 31.5249C25.3841 31.5586 25.3274 31.5915 25.2698 31.6244C25.1505 31.6927 25.0303 31.7594 24.9085 31.8244C24.8501 31.8556 24.7917 31.8869 24.7325 31.9174C24.6098 31.9807 24.4856 32.0416 24.3605 32.1009C24.3013 32.1288 24.242 32.1576 24.182 32.1848C24.0536 32.2432 23.9236 32.2992 23.7936 32.3543C23.7352 32.379 23.6776 32.4037 23.6183 32.4275C23.4817 32.4827 23.3435 32.5337 23.2052 32.5847C23.1509 32.6044 23.0966 32.6258 23.0423 32.6448C22.8917 32.6974 22.7387 32.746 22.5856 32.7937C22.5412 32.8077 22.4984 32.8225 22.454 32.8357C22.2697 32.89 22.0845 32.941 21.8969 32.9879C21.8821 32.9912 21.8681 32.9961 21.8533 32.9994C21.4427 33.1006 21.0239 33.1829 20.5984 33.2454C20.5606 33.2512 20.5219 33.2545 20.4841 33.2603C20.3392 33.28 20.1944 33.2997 20.048 33.3154C20.2389 32.3708 20.4816 31.6409 20.6519 31.1941C20.6791 31.1891 20.7062 31.185 20.7334 31.1801C20.8124 31.1653 20.8897 31.1496 20.9679 31.1332C21.056 31.1151 21.1432 31.0953 21.2304 31.0748C21.3077 31.0567 21.3859 31.0386 21.4624 31.0188C21.5505 30.9958 21.6385 30.9719 21.7257 30.9472C21.799 30.9266 21.873 30.9069 21.9455 30.8847C22.0532 30.8518 22.1602 30.8164 22.2664 30.7802C22.3684 30.7456 22.4696 30.7094 22.57 30.6724C22.6646 30.6378 22.7593 30.6024 22.8522 30.5654C22.9246 30.5366 22.9962 30.5053 23.0686 30.4741C23.1476 30.4403 23.2275 30.4066 23.3056 30.3712C23.3789 30.3383 23.4513 30.3037 23.5237 30.2692C23.5994 30.233 23.6751 30.196 23.75 30.1573C23.8216 30.1211 23.8923 30.0849 23.9631 30.047C24.0388 30.0067 24.1137 29.9647 24.1885 29.9219C24.2552 29.8841 24.3227 29.8471 24.3893 29.8076C24.4782 29.7549 24.5654 29.6998 24.6526 29.6446C24.7464 29.5854 24.8394 29.5245 24.9316 29.4628C25.0147 29.4068 25.097 29.3517 25.1784 29.2941C25.2401 29.2497 25.301 29.2036 25.3628 29.1583C25.4319 29.1073 25.5002 29.0555 25.5685 29.0028C25.6302 28.9551 25.6911 28.9057 25.7511 28.8564C25.817 28.8029 25.882 28.7486 25.9462 28.6934C26.0054 28.6432 26.0638 28.593 26.1214 28.542C26.1873 28.4836 26.2514 28.4235 26.3164 28.3635C26.3699 28.3133 26.4242 28.2639 26.4769 28.2137C26.5575 28.1355 26.6357 28.0557 26.7139 27.9751C26.7748 27.9125 26.8348 27.8492 26.8941 27.785C26.9723 27.7002 27.0504 27.6155 27.1261 27.5291C27.1714 27.4773 27.215 27.4238 27.2594 27.3711C27.3195 27.2995 27.3796 27.2279 27.438 27.1547C27.4824 27.0987 27.5269 27.042 27.5705 26.9852C27.6264 26.912 27.6824 26.8379 27.7367 26.7638C27.7778 26.7071 27.8198 26.6503 27.8601 26.5927C27.9169 26.512 27.972 26.4306 28.0263 26.3483C28.0617 26.2956 28.0971 26.243 28.1317 26.1895C28.2057 26.0735 28.2773 25.9566 28.3472 25.8381C28.3637 25.8102 28.381 25.7814 28.3974 25.7534C28.4731 25.6217 28.5464 25.4884 28.6171 25.3535C28.6426 25.3041 28.6673 25.2539 28.692 25.2045C28.7414 25.1066 28.7899 25.0087 28.8368 24.9091C28.8632 24.854 28.8879 24.798 28.9134 24.7421C28.957 24.645 28.9998 24.5463 29.0401 24.4475C29.0442 24.4368 29.0491 24.4261 29.0532 24.4154C29.9049 24.1957 30.8158 23.7983 31.4839 23.4724C31.4798 23.4881 31.4757 23.5037 31.4716 23.5193L31.4675 23.5177Z" fill="#009152"/>
<path d="M50.2925 14.5095V1.96666C50.2925 1.55952 50.4353 1.21428 50.7211 0.928568C51.0068 0.642854 51.352 0.5 51.7591 0.5H60.4734V2.90238H53.1425V5.91666H58.5996V6.85237C58.5996 7.25951 58.4568 7.60476 58.171 7.89047C57.8853 8.17619 57.5401 8.31904 57.133 8.31904H53.1425V14.5095H50.2925Z" fill="#009152"/>
<path d="M68.614 14.0618C68.045 14.3618 67.4402 14.5428 66.8021 14.6118C66.1641 14.6785 65.5998 14.7142 65.1117 14.7142C64.1355 14.7142 63.2783 14.4499 62.5474 13.9213C61.8141 13.3928 61.4474 12.5166 61.4474 11.2951C61.4474 10.1547 61.7807 9.34039 62.445 8.85229C63.1093 8.3642 63.9569 8.03801 64.9902 7.87611C65.126 7.87611 65.2879 7.85468 65.4783 7.8142C65.6688 7.77372 65.8855 7.74039 66.1307 7.71182C67.326 7.54992 67.9236 7.19753 67.9236 6.65229C67.9236 6.24515 67.714 5.98086 67.2926 5.85943C66.8712 5.73801 66.4855 5.6761 66.1331 5.6761C65.7521 5.6761 65.4141 5.73087 65.1141 5.83801C64.8141 5.94754 64.5974 6.14991 64.4617 6.44991H61.7331C61.8402 5.60943 62.2212 4.91658 62.8736 4.37372C63.6069 3.74991 64.6521 3.43801 66.0093 3.43801C67.5283 3.43801 68.6688 3.69515 69.4307 4.21182C70.2188 4.75468 70.6117 5.5142 70.6117 6.49278V10.1975C70.6117 11.2832 70.414 12.1309 70.0212 12.7428C69.6283 13.3547 69.1593 13.7952 68.6164 14.0666L68.614 14.0618ZM67.9617 9.05467C67.5807 9.24514 67.0521 9.42134 66.3736 9.58324L65.4379 9.78562C64.9498 9.92133 64.595 10.0975 64.3783 10.3142C64.1879 10.6142 64.0926 10.9118 64.0926 11.2094C64.0926 11.6166 64.2141 11.9428 64.4593 12.1856C64.7045 12.4023 65.0569 12.5118 65.5188 12.5118C66.2783 12.5118 66.876 12.2951 67.3117 11.8594C67.7474 11.4237 67.9641 10.8285 67.9641 10.0666V9.04753L67.9617 9.05467Z" fill="#009152"/>
<path d="M71.7452 14.5094V9.25703C71.7452 8.19751 71.9 7.30941 72.2143 6.59036C72.5262 5.87132 72.9548 5.29512 73.4976 4.85941C74.0119 4.45227 74.6167 4.15465 75.3095 3.96417C76.0024 3.77369 76.7143 3.67847 77.4476 3.67847H77.8548V6.56893H76.919C76.131 6.56893 75.5476 6.75941 75.169 7.13798C74.7881 7.51893 74.6 8.11656 74.6 8.93084V14.5094H71.75H71.7452Z" fill="#009152"/>
<path d="M88.3163 14.5095H85.5068V7.58572C85.5068 6.93334 85.3092 6.45953 84.9163 6.15953C84.5235 5.86191 84.0806 5.71191 83.5925 5.71191C83.1044 5.71191 82.6687 5.86191 82.2901 6.15953C81.9092 6.45953 81.7211 6.93334 81.7211 7.58572V14.5095H78.8711V8.15715C78.8711 6.31192 79.352 5.0762 80.3163 4.4524C81.2806 3.82859 82.3449 3.4881 83.5139 3.43334C84.1378 3.43334 84.7497 3.50239 85.3473 3.6381C85.9449 3.77381 86.4878 4.04525 86.9758 4.4524C87.383 4.10002 87.8639 3.84763 88.4211 3.70001C88.9782 3.55001 89.5544 3.46192 90.152 3.43573C91.3473 3.43573 92.4449 3.74763 93.4497 4.37144C94.4544 4.99525 94.9568 6.25954 94.9568 8.15954V14.5119H93.5306C93.1235 14.5119 92.7901 14.3833 92.533 14.1262C92.2758 13.8691 92.1473 13.5357 92.1473 13.1286V7.59049C92.1473 6.93811 91.9497 6.4643 91.5568 6.1643C91.1639 5.86668 90.7211 5.71668 90.233 5.71668C89.7449 5.71668 89.302 5.86668 88.9092 6.1643C88.5163 6.4643 88.3187 6.93811 88.3187 7.59049V14.5143L88.3163 14.5095Z" fill="#009152"/>
<path d="M95.7947 10.9261H98.5637C98.5899 11.4689 98.7947 11.8761 99.1756 12.1475C99.5828 12.4189 100.126 12.5546 100.804 12.5546C101.292 12.5546 101.714 12.4594 102.066 12.2689C102.392 12.0785 102.554 11.8213 102.554 11.4951C102.554 11.007 101.985 10.6404 100.845 10.3951C100.357 10.3142 99.9899 10.2332 99.7447 10.1499C98.3066 9.79751 97.3423 9.37608 96.8542 8.88799C96.3113 8.39989 96.0399 7.74751 96.0399 6.93322C96.0399 5.90227 96.4328 5.0475 97.2209 4.36655C98.0352 3.74274 99.0947 3.43084 100.397 3.43084C101.809 3.43084 102.935 3.74274 103.778 4.36655C104.566 5.04512 104.985 5.92847 105.04 7.01418H103.29C102.773 7.01418 102.38 6.78322 102.109 6.32132C101.999 6.21417 101.892 6.10465 101.783 5.99513C101.457 5.74989 101.009 5.62847 100.44 5.62847C99.8709 5.62847 99.4899 5.70941 99.2185 5.8737C98.9732 6.0356 98.8518 6.28084 98.8518 6.60703C98.8518 7.04275 99.5566 7.40703 100.968 7.70703C101.13 7.76179 101.273 7.80227 101.397 7.82846C101.518 7.85465 101.635 7.86893 101.742 7.86893C103.128 8.22131 104.09 8.62846 104.633 9.09036C105.147 9.57846 105.407 10.2308 105.407 11.0451C105.407 12.2404 104.971 13.1618 104.104 13.8142C103.29 14.4118 102.068 14.7094 100.44 14.7094C98.8113 14.7094 97.7375 14.3975 96.978 13.7737C96.1899 13.1499 95.7971 12.2404 95.7971 11.0451V10.9237L95.7947 10.9261Z" fill="#009152"/>
<path d="M112.193 0.502388H114.474L119.564 14.5095H116.509L115.574 11.6191H110.116L109.221 14.5095H106.166L110.809 1.4381C111.054 0.814291 111.514 0.502388 112.195 0.502388H112.193ZM112.845 3.31191L110.89 9.25715H114.8L112.845 3.31191Z" fill="#009152"/>
<path d="M123.713 17.1167C123.713 17.4952 123.578 17.8214 123.306 18.0929C123.035 18.3643 122.709 18.5 122.33 18.5H120.944V8.35953C120.944 6.45953 121.501 5.16191 122.613 4.47143C123.725 3.77858 124.935 3.43334 126.237 3.43334C126.916 3.43334 127.601 3.56191 128.294 3.81905C128.987 4.0762 129.537 4.45001 129.944 4.9381C130.759 5.99763 131.166 7.35476 131.166 9.00952C131.166 10.6643 130.759 12.1048 129.944 13.1643C129.13 14.1952 128.085 14.7119 126.809 14.7119C126.13 14.7119 125.532 14.5905 125.016 14.3452C124.473 14.0738 124.037 13.6524 123.713 13.0833V17.1143V17.1167ZM128.356 9.13572C128.356 8.0762 128.151 7.26191 127.744 6.69286C127.337 6.12382 126.754 5.83811 125.994 5.83811C125.235 5.83811 124.692 6.12382 124.285 6.69286C123.904 7.20953 123.716 8.02382 123.716 9.13572C123.716 10.1667 123.921 10.9405 124.328 11.4571C124.735 12.0262 125.318 12.3119 126.078 12.3119C126.782 12.3119 127.34 12.0262 127.747 11.4571C128.154 10.8881 128.359 10.1143 128.359 9.13572H128.356Z" fill="#009152"/>
<path d="M135.154 17.1167C135.154 17.4952 135.018 17.8214 134.747 18.0929C134.475 18.3643 134.149 18.5 133.771 18.5H132.385V8.35953C132.385 6.45953 132.942 5.16191 134.054 4.47143C135.166 3.77858 136.375 3.43334 137.678 3.43334C138.356 3.43334 139.042 3.56191 139.735 3.81905C140.428 4.0762 140.978 4.45001 141.385 4.9381C142.199 5.99763 142.606 7.35476 142.606 9.00952C142.606 10.6643 142.199 12.1048 141.385 13.1643C140.571 14.1952 139.525 14.7119 138.249 14.7119C137.571 14.7119 136.973 14.5905 136.456 14.3452C135.914 14.0738 135.478 13.6524 135.154 13.0833V17.1143V17.1167ZM139.795 9.13572C139.795 8.0762 139.59 7.26191 139.183 6.69286C138.775 6.12382 138.192 5.83811 137.433 5.83811C136.673 5.83811 136.13 6.12382 135.723 6.69286C135.342 7.20953 135.154 8.02382 135.154 9.13572C135.154 10.1667 135.359 10.9405 135.766 11.4571C136.173 12.0262 136.756 12.3119 137.516 12.3119C138.221 12.3119 138.778 12.0262 139.185 11.4571C139.592 10.8881 139.797 10.1143 139.797 9.13572H139.795Z" fill="#009152"/>
<path d="M51.0625 36.5V28.58H54.203C54.7383 28.58 55.1765 28.6882 55.5175 28.9045C55.8621 29.1172 56.117 29.3903 56.282 29.724C56.4506 30.0577 56.535 30.4023 56.535 30.758C56.535 31.1943 56.4305 31.5647 56.2215 31.869C56.0161 32.1733 55.7356 32.3787 55.38 32.485V32.21C55.8786 32.3237 56.2563 32.5602 56.513 32.9195C56.7733 33.2788 56.9035 33.6877 56.9035 34.146C56.9035 34.6153 56.8136 35.026 56.634 35.378C56.4543 35.73 56.1866 36.005 55.831 36.203C55.479 36.401 55.0426 36.5 54.522 36.5H51.0625ZM52.4045 35.2515H54.357C54.588 35.2515 54.7951 35.2057 54.9785 35.114C55.1618 35.0187 55.3048 34.8867 55.4075 34.718C55.5138 34.5457 55.567 34.3422 55.567 34.1075C55.567 33.8948 55.5211 33.7042 55.4295 33.5355C55.3378 33.3668 55.204 33.233 55.028 33.134C54.852 33.0313 54.6411 32.98 54.3955 32.98H52.4045V35.2515ZM52.4045 31.7425H54.1865C54.3771 31.7425 54.5476 31.7058 54.698 31.6325C54.8483 31.5592 54.9675 31.451 55.0555 31.308C55.1435 31.165 55.1875 30.989 55.1875 30.78C55.1875 30.505 55.0995 30.2758 54.9235 30.0925C54.7475 29.9092 54.5018 29.8175 54.1865 29.8175H52.4045V31.7425ZM58.7829 39.14L59.9269 35.9995L59.9489 36.9235L57.3584 30.56H58.7389L60.5759 35.268H60.2239L62.0114 30.56H63.3369L60.0259 39.14H58.7829ZM66.1394 36.5V36.3185L70.0444 29.823H66.4144V28.58H72.3379V28.767L68.4549 35.2515H72.2444V36.5H66.1394ZM75.8808 36.6705C75.4408 36.6705 75.0778 36.5972 74.7918 36.4505C74.5058 36.3038 74.2785 36.1168 74.1098 35.8895C73.9411 35.6622 73.8165 35.4202 73.7358 35.1635C73.6551 34.9068 73.602 34.6648 73.5763 34.4375C73.5543 34.2065 73.5433 34.0195 73.5433 33.8765V30.56H74.8853V33.42C74.8853 33.6033 74.8981 33.8105 74.9238 34.0415C74.9495 34.2688 75.0081 34.4888 75.0998 34.7015C75.1951 34.9105 75.3345 35.0828 75.5178 35.2185C75.7048 35.3542 75.956 35.422 76.2713 35.422C76.44 35.422 76.6068 35.3945 76.7718 35.3395C76.9368 35.2845 77.0853 35.191 77.2173 35.059C77.353 34.9233 77.4611 34.7382 77.5418 34.5035C77.6225 34.2688 77.6628 33.9718 77.6628 33.6125L78.4493 33.948C78.4493 34.454 78.3503 34.9123 78.1523 35.323C77.958 35.7337 77.6701 36.0618 77.2888 36.3075C76.9075 36.5495 76.4381 36.6705 75.8808 36.6705ZM77.8223 36.5V34.6575H77.6628V30.56H78.9938V36.5H77.8223ZM82.2 36.665C81.771 36.665 81.408 36.5843 81.111 36.423C80.814 36.258 80.5885 36.0398 80.4345 35.7685C80.2842 35.4972 80.209 35.1983 80.209 34.872C80.209 34.586 80.2567 34.3293 80.352 34.102C80.4474 33.871 80.594 33.673 80.792 33.508C80.99 33.3393 81.2467 33.2018 81.562 33.0955C81.8004 33.0185 82.079 32.9488 82.398 32.8865C82.7207 32.8242 83.069 32.7673 83.443 32.716C83.8207 32.661 84.2149 32.6023 84.6255 32.54L84.1525 32.8095C84.1562 32.3988 84.0645 32.0963 83.8775 31.902C83.6905 31.7077 83.3752 31.6105 82.9315 31.6105C82.6639 31.6105 82.4054 31.6728 82.156 31.7975C81.9067 31.9222 81.7325 32.1367 81.6335 32.441L80.4235 32.0615C80.5702 31.5592 80.8489 31.1558 81.2595 30.8515C81.6739 30.5472 82.2312 30.395 82.9315 30.395C83.4595 30.395 83.9234 30.4812 84.323 30.6535C84.7264 30.8258 85.0252 31.1082 85.2195 31.5005C85.3259 31.7095 85.39 31.924 85.412 32.144C85.434 32.3603 85.445 32.5968 85.445 32.8535V36.5H84.2845V35.213L84.477 35.422C84.2094 35.851 83.8959 36.1663 83.5365 36.368C83.1809 36.566 82.7354 36.665 82.2 36.665ZM82.464 35.609C82.7647 35.609 83.0214 35.5558 83.234 35.4495C83.4467 35.3432 83.6154 35.213 83.74 35.059C83.8684 34.905 83.9545 34.7602 83.9985 34.6245C84.0682 34.4558 84.1067 34.2633 84.114 34.047C84.125 33.827 84.1305 33.6492 84.1305 33.5135L84.5375 33.6345C84.1379 33.6968 83.795 33.7518 83.509 33.7995C83.223 33.8472 82.9774 33.893 82.772 33.937C82.5667 33.9773 82.3852 34.0232 82.2275 34.0745C82.0735 34.1295 81.9434 34.1937 81.837 34.267C81.7307 34.3403 81.6482 34.4247 81.5895 34.52C81.5345 34.6153 81.507 34.7272 81.507 34.8555C81.507 35.0022 81.5437 35.1323 81.617 35.246C81.6904 35.356 81.7967 35.444 81.936 35.51C82.079 35.576 82.255 35.609 82.464 35.609ZM86.8769 36.5V30.56H88.0484V32.0065L87.9054 31.8195C87.9788 31.6215 88.0759 31.4418 88.1969 31.2805C88.3216 31.1155 88.4701 30.9798 88.6424 30.8735C88.7891 30.7745 88.9504 30.6975 89.1264 30.6425C89.3061 30.5838 89.4894 30.549 89.6764 30.538C89.8634 30.5233 90.0449 30.5307 90.2209 30.56V31.7975C90.0449 31.7462 89.8414 31.7297 89.6104 31.748C89.3831 31.7663 89.1778 31.8305 88.9944 31.9405C88.8111 32.0395 88.6608 32.166 88.5434 32.32C88.4298 32.474 88.3454 32.65 88.2904 32.848C88.2354 33.0423 88.2079 33.2532 88.2079 33.4805V36.5H86.8769ZM91.3805 29.658V28.4425H92.706V29.658H91.3805ZM91.3805 36.5V30.56H92.706V36.5H91.3805ZM96.5556 36.5V28.58H101.324V29.9055H97.8811V31.88H100.664V33.2H97.8811V36.5H96.5556ZM103.76 36.665C103.331 36.665 102.968 36.5843 102.671 36.423C102.374 36.258 102.148 36.0398 101.994 35.7685C101.844 35.4972 101.769 35.1983 101.769 34.872C101.769 34.586 101.816 34.3293 101.912 34.102C102.007 33.871 102.154 33.673 102.352 33.508C102.55 33.3393 102.806 33.2018 103.122 33.0955C103.36 33.0185 103.639 32.9488 103.958 32.8865C104.28 32.8242 104.629 32.7673 105.003 32.716C105.38 32.661 105.774 32.6023 106.185 32.54L105.712 32.8095C105.716 32.3988 105.624 32.0963 105.437 31.902C105.25 31.7077 104.935 31.6105 104.491 31.6105C104.223 31.6105 103.965 31.6728 103.716 31.7975C103.466 31.9222 103.292 32.1367 103.193 32.441L101.983 32.0615C102.13 31.5592 102.408 31.1558 102.819 30.8515C103.233 30.5472 103.791 30.395 104.491 30.395C105.019 30.395 105.483 30.4812 105.883 30.6535C106.286 30.8258 106.585 31.1082 106.779 31.5005C106.885 31.7095 106.95 31.924 106.972 32.144C106.994 32.3603 107.005 32.5968 107.005 32.8535V36.5H105.844V35.213L106.037 35.422C105.769 35.851 105.455 36.1663 105.096 36.368C104.74 36.566 104.295 36.665 103.76 36.665ZM104.024 35.609C104.324 35.609 104.581 35.5558 104.794 35.4495C105.006 35.3432 105.175 35.213 105.3 35.059C105.428 34.905 105.514 34.7602 105.558 34.6245C105.628 34.4558 105.666 34.2633 105.674 34.047C105.685 33.827 105.69 33.6492 105.69 33.5135L106.097 33.6345C105.697 33.6968 105.355 33.7518 105.069 33.7995C104.783 33.8472 104.537 33.893 104.332 33.937C104.126 33.9773 103.945 34.0232 103.787 34.0745C103.633 34.1295 103.503 34.1937 103.397 34.267C103.29 34.3403 103.208 34.4247 103.149 34.52C103.094 34.6153 103.067 34.7272 103.067 34.8555C103.067 35.0022 103.103 35.1323 103.177 35.246C103.25 35.356 103.356 35.444 103.496 35.51C103.639 35.576 103.815 35.609 104.024 35.609ZM108.437 36.5V30.56H109.608V32.0065L109.465 31.8195C109.538 31.6215 109.636 31.4418 109.757 31.2805C109.881 31.1155 110.03 30.9798 110.202 30.8735C110.349 30.7745 110.51 30.6975 110.686 30.6425C110.866 30.5838 111.049 30.549 111.236 30.538C111.423 30.5233 111.605 30.5307 111.781 30.56V31.7975C111.605 31.7462 111.401 31.7297 111.17 31.748C110.943 31.7663 110.737 31.8305 110.554 31.9405C110.371 32.0395 110.22 32.166 110.103 32.32C109.989 32.474 109.905 32.65 109.85 32.848C109.795 33.0423 109.768 33.2532 109.768 33.4805V36.5H108.437ZM119.964 36.5V32.892C119.964 32.485 119.863 32.1678 119.661 31.9405C119.459 31.7095 119.186 31.594 118.842 31.594C118.629 31.594 118.438 31.6435 118.27 31.7425C118.101 31.8378 117.967 31.9808 117.868 32.1715C117.769 32.3585 117.72 32.5822 117.72 32.8425L117.131 32.496C117.127 32.0853 117.219 31.7242 117.406 31.4125C117.597 31.0972 117.853 30.8515 118.176 30.6755C118.499 30.4995 118.858 30.4115 119.254 30.4115C119.91 30.4115 120.413 30.6095 120.761 31.0055C121.113 31.3978 121.289 31.9148 121.289 32.5565V36.5H119.964ZM112.819 36.5V30.56H113.991V32.4025H114.156V36.5H112.819ZM116.4 36.5V32.9085C116.4 32.4942 116.299 32.1715 116.097 31.9405C115.895 31.7095 115.62 31.594 115.272 31.594C114.935 31.594 114.663 31.7095 114.458 31.9405C114.256 32.1715 114.156 32.4722 114.156 32.8425L113.562 32.4465C113.562 32.0615 113.657 31.715 113.848 31.407C114.038 31.099 114.295 30.857 114.618 30.681C114.944 30.5013 115.309 30.4115 115.712 30.4115C116.156 30.4115 116.526 30.5068 116.823 30.6975C117.124 30.8845 117.347 31.1412 117.494 31.4675C117.644 31.7902 117.72 32.155 117.72 32.562V36.5H116.4ZM122.724 36.5V28.58H124.049V31.913H127.8V28.58H129.12V36.5H127.8V33.156H124.049V36.5H122.724ZM132.89 36.6705C132.45 36.6705 132.087 36.5972 131.801 36.4505C131.515 36.3038 131.287 36.1168 131.119 35.8895C130.95 35.6622 130.825 35.4202 130.745 35.1635C130.664 34.9068 130.611 34.6648 130.585 34.4375C130.563 34.2065 130.552 34.0195 130.552 33.8765V30.56H131.894V33.42C131.894 33.6033 131.907 33.8105 131.933 34.0415C131.958 34.2688 132.017 34.4888 132.109 34.7015C132.204 34.9105 132.343 35.0828 132.527 35.2185C132.714 35.3542 132.965 35.422 133.28 35.422C133.449 35.422 133.616 35.3945 133.781 35.3395C133.946 35.2845 134.094 35.191 134.226 35.059C134.362 34.9233 134.47 34.7382 134.551 34.5035C134.631 34.2688 134.672 33.9718 134.672 33.6125L135.458 33.948C135.458 34.454 135.359 34.9123 135.161 35.323C134.967 35.7337 134.679 36.0618 134.298 36.3075C133.916 36.5495 133.447 36.6705 132.89 36.6705ZM134.831 36.5V34.6575H134.672V30.56H136.003V36.5H134.831ZM140.402 36.665C139.823 36.665 139.337 36.5275 138.945 36.2525C138.552 35.9775 138.257 35.6035 138.059 35.1305C137.861 34.6538 137.762 34.1203 137.762 33.53C137.762 32.9323 137.861 32.397 138.059 31.924C138.257 31.451 138.547 31.0788 138.928 30.8075C139.313 30.5325 139.788 30.395 140.353 30.395C140.914 30.395 141.4 30.5325 141.81 30.8075C142.225 31.0788 142.545 31.451 142.773 31.924C143 32.3933 143.114 32.9287 143.114 33.53C143.114 34.124 143.002 34.6575 142.778 35.1305C142.555 35.6035 142.239 35.9775 141.832 36.2525C141.425 36.5275 140.949 36.665 140.402 36.665ZM137.537 36.5V28.58H138.873V32.331H138.708V36.5H137.537ZM140.199 35.477C140.543 35.477 140.828 35.3908 141.051 35.2185C141.275 35.0462 141.44 34.8133 141.546 34.52C141.656 34.223 141.711 33.893 141.711 33.53C141.711 33.1707 141.656 32.8443 141.546 32.551C141.436 32.254 141.266 32.0193 141.035 31.847C140.804 31.671 140.51 31.583 140.155 31.583C139.817 31.583 139.542 31.6655 139.33 31.8305C139.117 31.9918 138.959 32.2192 138.857 32.5125C138.758 32.8022 138.708 33.1413 138.708 33.53C138.708 33.915 138.758 34.2542 138.857 34.5475C138.959 34.8408 139.119 35.07 139.335 35.235C139.555 35.3963 139.843 35.477 140.199 35.477Z" fill="#202020"/>
</svg>
