<svg width="104" height="24" viewBox="0 0 104 24" fill="none" xmlns="http://www.w3.org/2000/svg">
<path fill-rule="evenodd" clip-rule="evenodd" d="M4 12C4.00014 10.4605 4.44451 8.95364 5.27979 7.66038C6.11506 6.36712 7.30576 5.34234 8.70901 4.70901C10.1123 4.07568 11.6684 3.8607 13.1908 4.08987C14.7132 4.31904 16.1372 4.98262 17.2918 6.00099C18.4464 7.01936 19.2826 8.34926 19.7002 9.83111C20.1177 11.313 20.0988 12.8838 19.6457 14.3552C19.1926 15.8265 18.3246 17.1359 17.1458 18.1262C15.967 19.1165 14.5275 19.7456 13 19.938V14H15C15.2652 14 15.5196 13.8946 15.7071 13.7071C15.8946 13.5196 16 13.2652 16 13C16 12.7348 15.8946 12.4804 15.7071 12.2929C15.5196 12.1054 15.2652 12 15 12H13V10C13 9.73478 13.1054 9.48043 13.2929 9.29289C13.4804 9.10536 13.7348 9 14 9H14.5C14.7652 9 15.0196 8.89464 15.2071 8.70711C15.3946 8.51957 15.5 8.26522 15.5 8C15.5 7.73478 15.3946 7.48043 15.2071 7.29289C15.0196 7.10536 14.7652 7 14.5 7H14C13.2044 7 12.4413 7.31607 11.8787 7.87868C11.3161 8.44129 11 9.20435 11 10V12H9C8.73478 12 8.48043 12.1054 8.29289 12.2929C8.10536 12.4804 8 12.7348 8 13C8 13.2652 8.10536 13.5196 8.29289 13.7071C8.48043 13.8946 8.73478 14 9 14H11V19.938C9.06661 19.6944 7.28861 18.7535 5.99975 17.292C4.7109 15.8304 3.99982 13.9487 4 12ZM12 22C17.523 22 22 17.523 22 12C22 6.477 17.523 2 12 2C6.477 2 2 6.477 2 12C2 17.523 6.477 22 12 22Z" fill="#202020"/>
<path d="M47.8 2H56.2C59.4 2 62 4.6 62 7.8V16.2C62 17.7383 61.3889 19.2135 60.3012 20.3012C59.2135 21.3889 57.7383 22 56.2 22H47.8C44.6 22 42 19.4 42 16.2V7.8C42 6.26174 42.6111 4.78649 43.6988 3.69878C44.7865 2.61107 46.2617 2 47.8 2ZM47.6 4C46.6452 4 45.7295 4.37928 45.0544 5.05442C44.3793 5.72955 44 6.64522 44 7.6V16.4C44 18.39 45.61 20 47.6 20H56.4C57.3548 20 58.2705 19.6207 58.9456 18.9456C59.6207 18.2705 60 17.3548 60 16.4V7.6C60 5.61 58.39 4 56.4 4H47.6ZM57.25 5.5C57.5815 5.5 57.8995 5.6317 58.1339 5.86612C58.3683 6.10054 58.5 6.41848 58.5 6.75C58.5 7.08152 58.3683 7.39946 58.1339 7.63388C57.8995 7.8683 57.5815 8 57.25 8C56.9185 8 56.6005 7.8683 56.3661 7.63388C56.1317 7.39946 56 7.08152 56 6.75C56 6.41848 56.1317 6.10054 56.3661 5.86612C56.6005 5.6317 56.9185 5.5 57.25 5.5ZM52 7C53.3261 7 54.5979 7.52678 55.5355 8.46447C56.4732 9.40215 57 10.6739 57 12C57 13.3261 56.4732 14.5979 55.5355 15.5355C54.5979 16.4732 53.3261 17 52 17C50.6739 17 49.4021 16.4732 48.4645 15.5355C47.5268 14.5979 47 13.3261 47 12C47 10.6739 47.5268 9.40215 48.4645 8.46447C49.4021 7.52678 50.6739 7 52 7ZM52 9C51.2044 9 50.4413 9.31607 49.8787 9.87868C49.3161 10.4413 49 11.2044 49 12C49 12.7956 49.3161 13.5587 49.8787 14.1213C50.4413 14.6839 51.2044 15 52 15C52.7956 15 53.5587 14.6839 54.1213 14.1213C54.6839 13.5587 55 12.7956 55 12C55 11.2044 54.6839 10.4413 54.1213 9.87868C53.5587 9.31607 52.7956 9 52 9Z" fill="#202020"/>
<path d="M90 8.5L96 12L90 15.5V8.5Z" fill="#202020"/>
<path d="M92 5C101 5 101 5 101 12C101 19 101 19 92 19C83 19 83 19 83 12C83 5 83 5 92 5Z" stroke="#202020" stroke-width="2" stroke-linecap="round" stroke-linejoin="round"/>
</svg>
