<svg width="42" height="42" viewBox="0 0 42 42" fill="none" xmlns="http://www.w3.org/2000/svg">
<path d="M21.1601 19.87C21.0601 19.86 20.9401 19.86 20.8301 19.87C18.4501 19.79 16.5601 17.84 16.5601 15.44C16.5601 12.99 18.5401 11 21.0001 11C23.4501 11 25.4401 12.99 25.4401 15.44C25.4301 17.84 23.5401 19.79 21.1601 19.87Z" stroke="#202020" stroke-width="1.5" stroke-linecap="round" stroke-linejoin="round"/>
<path d="M16.16 23.56C13.74 25.18 13.74 27.82 16.16 29.43C18.91 31.27 23.42 31.27 26.17 29.43C28.59 27.81 28.59 25.17 26.17 23.56C23.43 21.73 18.92 21.73 16.16 23.56Z" stroke="#202020" stroke-width="1.5" stroke-linecap="round" stroke-linejoin="round"/>
</svg>
